<svg xmlns="http://www.w3.org/2000/svg" width="127.043" height="115.695" viewBox="0 0 127.043 115.695"><defs><style>.a{fill:#f19181;}.b{fill:#ec6548;}</style></defs><g transform="translate(0 -22)"><path class="a" d="M67.62,91.669h4.1a4.1,4.1,0,1,1,0-8.2H84.012v-4.1a4.1,4.1,0,0,1,4.1-4.1H100.19a12.3,12.3,0,0,1,7.68,2.695l6.653,5.322,3.229-3.445A34.353,34.353,0,0,0,92.688,22H90.674A34.316,34.316,0,0,0,64.591,34l-1.07,1.25L62.454,34A34.314,34.314,0,0,0,36.369,22H34.355A34.354,34.354,0,0,0,9.291,79.849l3.229,3.445,6.653-5.322a12.28,12.28,0,0,1,7.68-2.7H38.933a4.1,4.1,0,0,1,4.1,4.1v4.1H55.325a4.1,4.1,0,0,1,0,8.2h4.1a4.1,4.1,0,0,1,4.1,4.1A4.1,4.1,0,0,1,67.62,91.669Z"/><path class="a" d="M206.025,330.491a4.1,4.1,0,1,1,0-8.2h-8.2a4.1,4.1,0,0,1,0-8.2h-4.1a4.1,4.1,0,0,1-4.1-4.1,4.1,4.1,0,0,1-4.1,4.1h-4.1a4.1,4.1,0,0,1,0,8.2h-8.2a4.1,4.1,0,1,1,0,8.2h-3.705l20.1,21.437,20.1-21.437Z" transform="translate(-126.111 -214.233)"/><path class="b" d="M115.468,230.2l-6.317-5.053A14.39,14.39,0,0,0,100.192,222H88.111a6.155,6.155,0,0,0-6.147,6.147V230.2H71.718a6.127,6.127,0,0,0-5.7,8.435,6.105,6.105,0,0,0-2.5,1.362,6.131,6.131,0,0,0-2.5-1.362,6.127,6.127,0,0,0-5.7-8.435H45.08v-2.049A6.155,6.155,0,0,0,38.933,222H26.851a14.4,14.4,0,0,0-8.961,3.144L11.575,230.2H0v28.687H11.575l6.317,5.053a14.39,14.39,0,0,0,8.959,3.144H47.129a6.155,6.155,0,0,0,6.147-6.147,6.059,6.059,0,0,0-.377-2.049h2.426a6.127,6.127,0,0,0,5.7-8.435,6.138,6.138,0,0,0,2.5-1.36,6.132,6.132,0,0,0,2.5,1.362,6.09,6.09,0,0,0-.451,2.285,6.155,6.155,0,0,0,6.147,6.147h2.426a6.059,6.059,0,0,0-.377,2.049,6.155,6.155,0,0,0,6.147,6.147h20.278a14.4,14.4,0,0,0,8.961-3.144l6.316-5.053h11.575V230.2ZM59.423,246.589H34.834v4.1H55.325a2.049,2.049,0,0,1,0,4.1H34.834v4.1H47.129a2.049,2.049,0,1,1,0,4.1H26.851a10.283,10.283,0,0,1-6.4-2.246l-7.436-5.95H4.1V234.294h8.916l7.438-5.95a10.283,10.283,0,0,1,6.4-2.246H38.933a2.053,2.053,0,0,1,2.049,2.049V230.2H30.736v4.1H55.325a2.049,2.049,0,0,1,0,4.1H34.834v4.1H59.423a2.049,2.049,0,1,1,0,4.1Zm63.522,8.2h-8.916l-7.438,5.95a10.283,10.283,0,0,1-6.4,2.246H79.914a2.049,2.049,0,1,1,0-4.1H92.209v-4.1H71.718a2.049,2.049,0,1,1,0-4.1H92.209v-4.1H67.62a2.049,2.049,0,1,1,0-4.1H92.209v-4.1H71.718a2.049,2.049,0,1,1,0-4.1H96.307v-4.1H86.061v-2.049a2.053,2.053,0,0,1,2.049-2.049h12.081a10.283,10.283,0,0,1,6.4,2.246l7.436,5.95h8.916Z" transform="translate(0 -148.773)"/><path class="b" d="M382.54,80.638a22.344,22.344,0,0,1-2.043,9.391l3.723,1.709a26.378,26.378,0,0,0,2.418-11.1A26.669,26.669,0,0,0,360,54v4.1A22.567,22.567,0,0,1,382.54,80.638Z" transform="translate(-267.791 -23.804)"/></g></svg>