<svg xmlns="http://www.w3.org/2000/svg" width="115.716" height="115.716" viewBox="0 0 115.716 115.716"><defs><style>.a{fill:#f19181;}.b{fill:#ec6448;}</style></defs><g transform="translate(11.198 39.194)"><path class="a" d="M48,280H85.328v16.8H48Z" transform="translate(-48 -253.871)"/><path class="a" d="M91.2,179.2H80V168H91.2Z" transform="translate(-72.534 -168)"/><path class="a" d="M299.2,179.2H288V168h11.2Z" transform="translate(-232.009 -168)"/></g><path class="b" d="M80.526,56v3.733H96.55L109.615,72.8H93.591V76.53h13.065v22.4H87.991V74.664H84.259V98.927H80.526V80.263H65.595V98.927H61.862V74.664H58.129V98.927H39.466V76.53H52.53V72.8H36.506L49.57,59.733H65.595V56H48.025L32,72.025V76.53h3.733V102.66h74.655V76.53h3.733V72.025L98.1,56Zm-11.2,28h7.466V98.927H69.328Z" transform="translate(-24.534 -42.935)"/><path class="b" d="M97.052,89.586V0H0V104.517a11.209,11.209,0,0,0,11.2,11.2h91.453a13.081,13.081,0,0,0,13.065-13.065V89.586ZM18.664,104.517a7.466,7.466,0,1,1-14.931,0V3.733H93.319V89.586H18.664Zm93.319-1.866a9.343,9.343,0,0,1-9.332,9.332H19.537a11.152,11.152,0,0,0,2.86-7.466v-11.2h89.586Z"/><path class="b" d="M48,272H85.328v3.733H48Z" transform="translate(-36.802 -208.543)"/><path class="b" d="M48,304H85.328v3.733H48Z" transform="translate(-36.802 -233.077)"/><path class="b" d="M192,336h3.733v3.733H192Z" transform="translate(-147.207 -257.612)"/><path class="b" d="M160,336h3.733v3.733H160Z" transform="translate(-122.672 -257.612)"/><path class="b" d="M48,336H70.4v3.733H48Z" transform="translate(-36.802 -257.612)"/><path class="b" d="M254.862,332.688l-3.733,3.733-3.733-3.733-5.052,5.052,2.639,2.639,2.413-2.413,3.733,3.733,3.733-3.733,2.96,2.96h10.1v-3.733h-8.559Z" transform="translate(-185.806 -255.073)"/><path class="b" d="M368,352h3.733v3.733H368Z" transform="translate(-282.146 -269.879)"/><path class="a" d="M150.968,60a5.865,5.865,0,0,1-4.119-1.706L134.4,45.838,121.944,58.29a5.825,5.825,0,0,1-8.238-8.238l16.346-16.345A5.864,5.864,0,0,1,134.171,32h.452a5.864,5.864,0,0,1,4.119,1.706l16.345,16.345A5.825,5.825,0,0,1,150.968,60Z" transform="translate(-85.871 -24.534)"/></svg>