<svg xmlns="http://www.w3.org/2000/svg" width="20.209" height="20.209" viewBox="0 0 20.209 20.209"><defs><style>.a{fill:#ec6548;stroke:#ec6548;stroke-width:1.5px;}</style></defs><g transform="translate(0.75 0.75)"><g transform="translate(0 11.437)"><path class="a" d="M17.247,313v5.079a.732.732,0,0,1-.731.731H2.192a.732.732,0,0,1-.731-.731V313H0v5.079a2.195,2.195,0,0,0,2.192,2.192H16.517a2.195,2.195,0,0,0,2.192-2.192V313Z" transform="translate(0 -313)"/></g><g transform="translate(4.813)"><path class="a" d="M139.765,8.613l-2.777,2.777V0h-1.462V11.39L132.75,8.613l-1.034,1.034,4.541,4.541L140.8,9.647Z" transform="translate(-131.716)"/></g></g></svg>