<svg xmlns="http://www.w3.org/2000/svg" width="115.106" height="115.448" viewBox="0 0 115.106 115.448"><defs><style>.a{fill:#f19181;}.b{fill:#ec6548;}</style></defs><g transform="translate(-16 -6.552)"><g transform="translate(21.661 71.051)"><g transform="translate(0)"><path class="a" d="M136.237,302.644l-7.548-1.887a45.848,45.848,0,0,1-43.571,30.192A47.137,47.137,0,0,1,40,298.134l7.189-2.3A39.6,39.6,0,0,0,85.118,323.4a38.211,38.211,0,0,0,36.023-24.531l-7.548-1.887L130.576,280Z" transform="translate(-40 -280)"/></g></g><g transform="translate(16 27.65)"><path class="a" d="M72.255,96.306l-.025-.036A48.262,48.262,0,0,0,67.119,96a45.848,45.848,0,0,0-43.571,30.192L16,124.3l5.661,22.644,16.983-16.983L31.1,128.079a38.211,38.211,0,0,1,36.023-24.531,40.355,40.355,0,0,1,11.3,1.606l-.045-.064a22.672,22.672,0,0,1-6.123-8.784Z" transform="translate(-16 -96)"/></g><g transform="translate(44.305 6.552)"><path class="b" d="M158.644,200a22.644,22.644,0,1,0,22.644,22.644A22.669,22.669,0,0,0,158.644,200Zm16.317,13.209h-6.333a25.849,25.849,0,0,0-4.395-8.59A18.946,18.946,0,0,1,174.961,213.209Zm2.553,9.435a18.842,18.842,0,0,1-.87,5.661h-7.131a35.607,35.607,0,0,0,0-11.322h7.129a18.784,18.784,0,0,1,.872,5.661Zm-18.862,18.417a20.5,20.5,0,0,1-6.014-8.982h12.03a20.283,20.283,0,0,1-6.016,8.982ZM151.628,228.3a30.037,30.037,0,0,1-.532-5.661,30.362,30.362,0,0,1,.526-5.661H165.66a30.039,30.039,0,0,1,.532,5.661,30.364,30.364,0,0,1-.526,5.661Zm-11.854-5.661a18.843,18.843,0,0,1,.87-5.661h7.129a35.681,35.681,0,0,0,0,11.322h-7.129A18.784,18.784,0,0,1,139.774,222.644Zm18.864-18.417a20.513,20.513,0,0,1,6.014,8.982h-12.03a20.269,20.269,0,0,1,6.016-8.982Zm-5.584.393a25.811,25.811,0,0,0-4.395,8.59h-6.333A18.946,18.946,0,0,1,153.055,204.619Zm-10.728,27.459h6.333a25.849,25.849,0,0,0,4.395,8.59A18.946,18.946,0,0,1,142.327,232.079Zm21.906,8.59a25.812,25.812,0,0,0,4.395-8.59h6.333a18.946,18.946,0,0,1-10.728,8.59Z" transform="translate(-136 -154.371)"/><path class="b" d="M290.056,26.209a20.686,20.686,0,0,0-12.316,8.271v-.859a24.451,24.451,0,0,0-20.5-24.2L240,6.552V19.791a24.451,24.451,0,0,0,20.5,24.195l13.467,2.246V65.39h3.774V55.57l11.365-2.623A16.906,16.906,0,0,0,302.271,36.4V23.392Zm-46.282-6.418V11.009l12.849,2.142a20.69,20.69,0,0,1,17.343,20.472v6.455L254.543,20.655l-2.668,2.668L270.354,41.8l-9.237-1.54a20.69,20.69,0,0,1-17.343-20.472ZM298.5,36.4a13.144,13.144,0,0,1-10.239,12.869l-6.418,1.481,10.443-10.443-2.668-2.668L277.74,49.513V46.435A16.906,16.906,0,0,1,290.9,29.887l7.593-1.751Z" transform="translate(-215.469 -6.552)"/></g></g></svg>