<svg xmlns="http://www.w3.org/2000/svg" width="115.716" height="115.716" viewBox="0 0 115.716 115.716"><defs><style>.a{fill:#f19181;}.b{fill:#ec6548;}</style></defs><path class="a" d="M26.129,26.129l-9.261-7.466H0V0H33.595V18.664H26.129Z"/><path class="a" d="M216,336h14.931v7.466H216Z" transform="translate(-165.608 -257.612)"/><path class="a" d="M218.129,45.065A13.065,13.065,0,1,1,205.065,32,13.064,13.064,0,0,1,218.129,45.065Z" transform="translate(-147.207 -24.534)"/><path class="b" d="M64,32h3.733v3.733H64Z" transform="translate(-49.069 -24.534)"/><path class="b" d="M96,32h3.733v3.733H96Z" transform="translate(-73.603 -24.534)"/><path class="b" d="M32,32h3.733v3.733H32Z" transform="translate(-24.534 -24.534)"/><path class="b" d="M257.332,45.065h3.733A13.082,13.082,0,0,0,248,32v3.733A9.343,9.343,0,0,1,257.332,45.065Z" transform="translate(-190.142 -24.534)"/><path class="b" d="M109.066,89.956l-12.014-3.6V83.515a13.051,13.051,0,0,0,5.6-10.705v-5.6A12.992,12.992,0,0,0,87.4,54.343a9.3,9.3,0,0,0-7.341-6.881L67.19,45.121V40.979A3.619,3.619,0,0,1,68.8,37.914,20.519,20.519,0,0,0,71.548,5.252a20.532,20.532,0,0,0-34.021,12.4,20.4,20.4,0,0,0,9.39,20.266,3.692,3.692,0,0,1,1.609,3.165v4.041l-12.871,2.34a9.3,9.3,0,0,0-7.339,6.881A12.992,12.992,0,0,0,13.065,67.21v5.6a13.051,13.051,0,0,0,5.6,10.705v2.837L6.65,89.956A9.275,9.275,0,0,0,0,98.9v16.84H52.259V98.9a9.324,9.324,0,0,0-.78-3.69H64.237a9.317,9.317,0,0,0-.78,3.69v16.84h52.259V98.9A9.277,9.277,0,0,0,109.066,89.956Zm-15.747-2.73a4.116,4.116,0,0,1-7.466,0v-1.9a12.934,12.934,0,0,0,7.466,0Zm5.6-20.015v5.6a9.332,9.332,0,0,1-18.664,0v-5.6a9.332,9.332,0,0,1,18.664,0ZM83.855,55.488A13.07,13.07,0,0,0,76.522,67.21v5.6a13.051,13.051,0,0,0,5.6,10.705v2.837l-9.332,2.8V69.076h-7.8L63.519,61.73,64.6,58.5l3.985,2.39,1.9-11.375,8.912,1.62A5.591,5.591,0,0,1,83.855,55.488ZM67.147,91.473H48.569a9.283,9.283,0,0,0-1.909-1.109V72.809h22.4V90.364A9.277,9.277,0,0,0,67.147,91.473Zm-3.69-48.526v2.8l-5.6,4.2-5.6-4.2v-2.8ZM55.991,24.283a1.866,1.866,0,1,1,1.866,1.866A1.868,1.868,0,0,1,55.991,24.283ZM61.2,52.106l4.591-3.444,1.013.185-1,6.021ZM49.926,48.662l4.591,3.444-4.6,2.76-1-6.021Zm7.932,5.8,3.458,2.075-1.072,3.213H55.469L54.4,56.532Zm-2.2,9.02h4.407l1.119,5.6H54.536ZM41.224,18.157a16.877,16.877,0,0,1,14.712-14.3,16.794,16.794,0,0,1,10.871,30.9,7.136,7.136,0,0,0-3.133,4.457h-3.95V29.539a5.6,5.6,0,1,0-3.733,0v9.676H52.036a7.288,7.288,0,0,0-3.128-4.457A16.71,16.71,0,0,1,41.224,18.157Zm-4.9,32.976,8.914-1.62,1.9,11.375L51.12,58.5,52.2,61.73l-1.468,7.346h-7.8V89.151l-9.332-2.8V83.515a13.051,13.051,0,0,0,5.6-10.705v-5.6a13.07,13.07,0,0,0-7.333-11.722A5.591,5.591,0,0,1,36.325,51.134ZM16.8,72.809v-5.6a9.332,9.332,0,0,1,18.664,0v5.6a9.332,9.332,0,1,1-18.664,0Zm9.332,13.065a12.989,12.989,0,0,0,3.733-.55v1.9a4.773,4.773,0,0,1-3.733,2.381A4.773,4.773,0,0,1,22.4,87.225v-1.9A12.989,12.989,0,0,0,26.129,85.874ZM48.526,112H41.06V98.939H37.328V112h-22.4V98.939H11.2V112H3.733V98.9a5.564,5.564,0,0,1,3.991-5.364l12.018-3.606a8.117,8.117,0,0,0,6.388,3.414,8.117,8.117,0,0,0,6.388-3.414l12.018,3.606A5.634,5.634,0,0,1,48.526,98.9Zm63.457,0h-7.466V98.939h-3.733V112h-22.4V98.939H74.655V112H67.19V98.9a5.564,5.564,0,0,1,3.991-5.364L83.2,89.926a7.684,7.684,0,0,0,12.777,0l12.018,3.606a5.634,5.634,0,0,1,3.991,5.364Z" transform="translate(0 -0.02)"/><path class="b" d="M216,328h14.931v3.733H216Z" transform="translate(-165.608 -251.478)"/><path class="b" d="M216,360h14.931v3.733H216Z" transform="translate(-165.608 -276.013)"/><path class="b" d="M432,168h3.733v3.733H432Z" transform="translate(-331.215 -128.806)"/><g transform="translate(91.591)"><path class="b" d="M401.785,33.714a16.516,16.516,0,0,1,1.007-5.976,17.9,17.9,0,0,1,4.061-5.33,39.924,39.924,0,0,0,4.014-4.339,10.217,10.217,0,0,0,1.385-2.8,11.375,11.375,0,0,0,.488-3.473,8.719,8.719,0,0,0-2.093-6.18,7.589,7.589,0,0,0-5.839-2.248,8.575,8.575,0,0,0-6.091,2.156,7.789,7.789,0,0,0-2.377,5.839h-3.746A10.783,10.783,0,0,1,396.087,3.1a12.51,12.51,0,0,1,8.72-3.1,11.492,11.492,0,0,1,8.546,3.161,11.638,11.638,0,0,1,3.132,8.57,13.634,13.634,0,0,1-1.542,6.369,27.525,27.525,0,0,1-5.855,6.933q-3.557,2.986-3.557,8.68Z" transform="translate(-392.593)"/></g></svg>