<svg xmlns="http://www.w3.org/2000/svg" width="115.716" height="115.716" viewBox="0 0 115.716 115.716"><defs><style>.a{fill:#f19181;}.b{fill:#ec6548;}</style></defs><g transform="translate(-8 -8)"><g transform="translate(19.198 15.466)"><path class="a" d="M91.461,40H77.411A21.293,21.293,0,0,0,58.26,51.837,21.525,21.525,0,0,0,56,61.411v1.973A21.3,21.3,0,0,0,67.837,82.535L72.8,85.013V75.461l-3.841-1.921a6.566,6.566,0,0,1-3.625-5.89v-.116a5.14,5.14,0,0,1,5.14-5.138h.14a5.281,5.281,0,0,1,3.733,1.545l.319.321A15.047,15.047,0,0,1,83.675,53.94l.761-.3,7-.041a3.733,3.733,0,0,1,3.753,3.733v.545A9.324,9.324,0,0,0,91.461,40Z" transform="translate(-56 -40)"/></g><g transform="translate(75.19 8)"><path class="a" d="M305.332,21.634h7.023l.762.3a15.052,15.052,0,0,1,9.013,10.325l.321-.321a5.28,5.28,0,0,1,3.733-1.545h.14a5.14,5.14,0,0,1,5.138,5.14v.116a6.57,6.57,0,0,1-3.624,5.89L324,43.461v9.552l4.961-2.48a21.3,21.3,0,0,0,11.837-19.151V29.409a21.532,21.532,0,0,0-2.26-9.575A21.3,21.3,0,0,0,319.382,8H299.733A3.737,3.737,0,0,0,296,11.733v3.412a11.515,11.515,0,0,0,5.633,9.884A3.722,3.722,0,0,1,305.332,21.634Z" transform="translate(-296 -8)"/></g><path class="b" d="M123.716,108.657a14.837,14.837,0,0,0-10.64-14.3l-8.024-2.408V83.293l2.807-1.405a8.437,8.437,0,0,0,4.658-7.673,7.154,7.154,0,0,0-10.258-6.3A16.967,16.967,0,0,0,93,58.885l-1.1-.437H84.522a5.606,5.606,0,0,0-5.6,5.6V79.036a12.451,12.451,0,0,0,7.466,11.392v5.187l-9.66,2.415a13.1,13.1,0,0,0-7.283,4.836l-.526.7-2.189-1.642a15.026,15.026,0,0,0-8.959-2.986H52.793V97.894A12.451,12.451,0,0,0,60.259,86.5V71.472A5.558,5.558,0,0,0,58.607,67.5a5.718,5.718,0,0,0-3.979-1.627l-7.355.041-1.09.435a16.977,16.977,0,0,0-9.261,9.037,7.518,7.518,0,0,0-3.251-.711,7.039,7.039,0,0,0-7.006,7.12,8.4,8.4,0,0,0,4.657,7.559l2.809,1.405V99.4l-7.189,2.053a11.259,11.259,0,0,0-7.41,6.835l-.692,1.851H11.733A3.737,3.737,0,0,0,8,113.868V117.6a3.737,3.737,0,0,0,3.733,3.733v41.06H116.25V149.281a9.294,9.294,0,0,0,3.733-7.417V128.8h3.733ZM101.972,95.787l-3.352,7.818-6.3-4.2ZM82.78,80.273a8.712,8.712,0,0,1-.125-1.237V64.047a1.868,1.868,0,0,1,1.866-1.866h6.665l.427.17a13.213,13.213,0,0,1,7.893,9.043l.8,3.2,2.648-2.658a3.5,3.5,0,0,1,2.555-1,3.3,3.3,0,0,1,3.274,3.387,4.68,4.68,0,0,1-2.594,4.22l-4.871,2.437V92.045l-11.2,4.2V91.41c.407.039.819.062,1.237.062h0A12.52,12.52,0,0,0,96.92,90.16l1.5-.75L96.75,86.07l-1.5.75a8.679,8.679,0,0,1-11.017-2.814M64.49,104.91l2.191,1.642-5.489,7.316H56.526v-6.863l-5.915-2.367,1.314-1.969h5.844a11.284,11.284,0,0,1,6.721,2.24Zm10.7,31.355a7.466,7.466,0,1,0,0,14.931v7.466h-11.2V137.038l11.2-11.2ZM27.83,125l-3.121,9.36,3.7,12.955a3,3,0,0,1,.119.84,3.049,3.049,0,0,1-3.044,3.046,3.623,3.623,0,0,1-3.557-2.854L19.51,137.461a13.062,13.062,0,0,1,.192-6.43l2.087-7.3A23.894,23.894,0,0,0,27.83,125ZM49.06,117.6h3.733v5.6H49.06v3.733h3.733v9.332H45.328V121.334A3.737,3.737,0,0,0,49.06,117.6Zm11.2,18.664H56.526v-9.332h3.733Zm0-13.065H56.526v-5.6h3.733Zm-14.931-5.6H36.1l1.245-3.733h7.986Zm-11.2,29.862H32.214A6.828,6.828,0,0,0,32,146.289l-.73-2.559h2.857Zm0-7.466H30.2l-1.588-5.558,3.126-9.373h1.866l.521-1.564Zm-11.2,14.478a7.441,7.441,0,0,0,2.555.454,6.759,6.759,0,0,0,6.021-3.733h2.622v7.466h-11.2Zm14.931-33.141h3.733v37.328H37.862ZM45.328,140H60.259v18.664H45.328Zm18.664-8.238v-9l4.093,4.91ZM54.947,91.472A8.679,8.679,0,0,1,43.93,94.286l-1.5-.75-1.67,3.339,1.5.75a12.52,12.52,0,0,0,5.562,1.312,12.312,12.312,0,0,0,1.237-.063v1.364l-1.99,2.984L37.862,99.54V88.452l-4.873-2.437A4.728,4.728,0,0,1,30.4,81.681a3.311,3.311,0,0,1,3.414-3.274,3.391,3.391,0,0,1,2.411,1l2.65,2.66.8-3.2a13.217,13.217,0,0,1,7.893-9.043L48,69.643l6.65-.039h.011a1.864,1.864,0,0,1,1.865,1.866V86.5a8.712,8.712,0,0,1-.125,1.237M23.026,109.6a7.49,7.49,0,0,1,4.94-4.556l7.927-2.266,16.9,6.758v4.336H49.06a3.737,3.737,0,0,0-3.733-3.733H34.65l-3.733,11.2H29.659a20.275,20.275,0,0,1-10.041-2.648Zm-11.293,4.272h5.706l-1.4,3.733H11.733Zm3.733,20.756v-13.29h1.342q.75.473,1.53.89l-2.223,7.783a16.779,16.779,0,0,0-.25,8.262l2.419,10.881a7.442,7.442,0,0,0,.915,2.26v7.251H15.466Zm97.052,24.037H78.923V151.2h31.728a9.323,9.323,0,0,0,1.866-.189Zm3.733-16.8a5.606,5.606,0,0,1-5.6,5.6H75.19a3.733,3.733,0,0,1,0-7.466h33.595V128.8h7.466Zm3.733-16.8H105.052v-8.891l1.67-3.339-3.339-1.67-2.064,4.128V128.8h3.733v7.466H78.923V112H75.19v8.559l-4.455,4.455-6.743-8.091v-.569l8.438-11.251a9.382,9.382,0,0,1,5.2-3.457l8.755-2.189v14.408h3.733V102.424l10.164,6.777L105.9,96.1l6.1,1.833a11.127,11.127,0,0,1,7.979,10.724Z" transform="translate(0 -38.679)"/></g></svg>