<svg xmlns="http://www.w3.org/2000/svg" width="115.716" height="115.716" viewBox="0 0 115.716 115.716"><defs><style>.a{fill:#f19181;}.b{fill:#ec6448;}</style></defs><path class="a" d="M80,360h48.526v16.8H80Z" transform="translate(-61.336 -276.013)"/><path class="b" d="M111.471,137.355a11.176,11.176,0,0,0,3.991-8.557v-5.6a11.2,11.2,0,0,0-22.4,0v5.6a11.176,11.176,0,0,0,3.991,8.557A24.309,24.309,0,0,0,80,160.526v3.733h48.526v-3.733A24.309,24.309,0,0,0,111.471,137.355ZM96.8,128.8v-5.6a7.466,7.466,0,0,1,14.931,0v5.6a7.466,7.466,0,0,1-14.931,0ZM83.733,160.526a20.53,20.53,0,1,1,41.06,0Z" transform="translate(-61.336 -85.871)"/><path class="b" d="M80,352h48.526v3.733H80Z" transform="translate(-61.336 -269.879)"/><path class="b" d="M272,416h3.733v3.733H272Z" transform="translate(-208.543 -318.948)"/><path class="b" d="M80,416h41.06v3.733H80Z" transform="translate(-61.336 -318.948)"/><path class="b" d="M80,384h22.4v3.733H80Z" transform="translate(-61.336 -294.414)"/><path class="b" d="M192,384h22.4v3.733H192Z" transform="translate(-147.207 -294.414)"/><path class="b" d="M144,32h3.733v3.733H144Z" transform="translate(-110.405 -24.534)"/><path class="b" d="M208,32h3.733v3.733H208Z" transform="translate(-159.474 -24.534)"/><path class="b" d="M85.854,28.714V7.466h-22.4V3.733A3.737,3.737,0,0,0,59.724,0H26.129A3.737,3.737,0,0,0,22.4,3.733V7.466H0v108.25H85.854V85.854H82.121v26.129H3.733V11.2H22.4v3.733H7.466V108.25H78.388v-28H74.655v24.263H11.2V18.664H55.991V14.931H26.129V3.733H59.724V18.664H74.655V33.595h3.733V14.931H63.457V11.2H82.121V28.714Z"/><path class="a" d="M298.129,170.889l-5.7-3.507A43.211,43.211,0,0,1,272,130.821V115.244l26.129-12.06,26.129,12.06v15.577a43.21,43.21,0,0,1-20.427,36.56Z" transform="translate(-208.543 -79.111)"/><path class="b" d="M352.8,206.4H341.6v-5.6H336V189.6h5.6V184h11.2v5.6h5.6v11.2h-5.6Zm-7.465-3.733h3.733v-5.6h5.6v-3.733h-5.6v-5.6h-3.733v5.6h-5.6v3.733h5.6Z" transform="translate(-257.612 -141.073)"/></svg>