<svg xmlns="http://www.w3.org/2000/svg" width="98.918" height="115.716" viewBox="0 0 98.918 115.716"><defs><style>.a{fill:#f19181;}.b{fill:#ec6448;}</style></defs><g transform="translate(7.466 7.466)"><path class="a" d="M332,384h26.129v11.2H332Z" transform="translate(-270.409 -301.879)"/><path class="a" d="M76,360h28v22.4H76Z" transform="translate(-74.134 -283.478)"/><path class="a" d="M68,32h33.595V50.664H68Z" transform="translate(-68 -32)"/></g><path class="b" d="M129.952,36.419l-7.836-4.179,11.1-11.1a5.825,5.825,0,0,0-4.119-9.944,5.864,5.864,0,0,0-4.119,1.706l-6.853,6.853V0H36V115.716h82.121V102.651h14.931V87.72h-3.733V79.934a5.657,5.657,0,0,1,.458-2.231l4.384-10.226a9.4,9.4,0,0,0,.757-3.7V44.7a9.453,9.453,0,0,0-.991-4.2A9.346,9.346,0,0,0,129.952,36.419Zm-2.339-20.875a2.093,2.093,0,0,1,3.572,1.48,2.078,2.078,0,0,1-.612,1.48L110.28,38.8a9.332,9.332,0,0,0-3.368-2.552ZM112.121,42.234l.768-.769,7.932,3.966a1.856,1.856,0,0,1,1.033,1.669,18.392,18.392,0,0,1-.944,5.825l-1.456,4.367a3.557,3.557,0,0,1-6.932-1.124V44.793A9.215,9.215,0,0,0,112.121,42.234ZM99.457,49.62l-8.422,8.419-3.945.985.987-3.945L99.457,43.7ZM67.728,72.694a18.663,18.663,0,0,1,0-37.138ZM84,55.991H71.461V35.538A22.331,22.331,0,0,1,89.76,48.12l-5.053,5.051ZM71.461,59.724H83.069l-1.107,4.433,9.677-2.42a22.431,22.431,0,0,1-20.177,18.44ZM104.689,33.19,100.9,31.3a2.6,2.6,0,0,1-1.446-2.336v-.219a2.611,2.611,0,0,1,3.841-2.3l5.309,2.832Zm24.63,65.728h-11.2a3.737,3.737,0,0,0-3.733,3.733v9.332H39.733V3.733h74.655V23.49l-3.02,3.02-6.314-3.367a6.345,6.345,0,0,0-9.33,5.6v.219a6.32,6.32,0,0,0,3.509,5.678l2.378,1.188A3.741,3.741,0,0,0,99.578,38.3l-7.051,7.051A26.056,26.056,0,0,0,69.595,31.728H67.728v.095a22.378,22.378,0,0,0,0,44.6v7.56h1.866A26.143,26.143,0,0,0,95.683,58.673L99.457,54.9v8.425a9.419,9.419,0,0,0,1.238,4.661l5.483,9.592a5.717,5.717,0,0,1,.744,2.81V87.72H103.19v14.931h7.466V98.918h-3.733V91.453h22.4Zm1.866-35.14a5.658,5.658,0,0,1-.458,2.231l-4.384,10.226a9.4,9.4,0,0,0-.757,3.7V87.72H110.655V80.386a9.416,9.416,0,0,0-1.238-4.661l-5.483-9.592a5.706,5.706,0,0,1-.744-2.809V39.194a5.607,5.607,0,0,1,5.6,5.6V56.167a7.289,7.289,0,0,0,14.2,2.307l1.458-4.367a22.169,22.169,0,0,0,1.136-7.007,5.569,5.569,0,0,0-3.095-5.007l-6.819-3.41L119.357,35l8.837,4.712a5.663,5.663,0,0,1,2.992,4.993Z" transform="translate(-36)"/><path class="b" d="M204,280h3.733v3.733H204Z" transform="translate(-164.806 -214.677)"/><path class="b" d="M236,280h3.733v3.733H236Z" transform="translate(-189.34 -214.677)"/><path class="b" d="M116,208h9.332v3.733H116Z" transform="translate(-97.336 -159.474)"/><path class="b" d="M116,240h9.332v3.733H116Z" transform="translate(-97.336 -184.009)"/><path class="b" d="M94.129,371.2H90.4v9.332H86.664V367.466H82.931V380.53H79.2v-16.8H75.466v16.8H71.733V360H68v24.263H97.862V380.53H94.129Z" transform="translate(-60.534 -276.013)"/><path class="b" d="M214.595,363.733h2.96l-4.826,4.826L209,364.826l-10.651,10.652,2.639,2.639L209,370.1l3.733,3.733,7.466-7.465v2.96h3.733V360h-9.332Z" transform="translate(-160.47 -276.013)"/><path class="b" d="M68,32h3.733v3.733H68Z" transform="translate(-60.534 -24.534)"/><path class="b" d="M100,32h26.129v3.733H100Z" transform="translate(-85.069 -24.534)"/><path class="b" d="M68,64h3.733v3.733H68Z" transform="translate(-60.534 -49.069)"/><path class="b" d="M100,64h26.129v3.733H100Z" transform="translate(-85.069 -49.069)"/><path class="b" d="M68,96h3.733v3.733H68Z" transform="translate(-60.534 -73.603)"/><path class="b" d="M100,96h26.129v3.733H100Z" transform="translate(-85.069 -73.603)"/><path class="b" d="M276,32h3.733v3.733H276Z" transform="translate(-220.009 -24.534)"/><path class="b" d="M308,32h3.733v3.733H308Z" transform="translate(-244.543 -24.534)"/><path class="b" d="M340,32h3.733v3.733H340Z" transform="translate(-269.078 -24.534)"/></svg>