<svg xmlns="http://www.w3.org/2000/svg" width="526.815" height="513.957" viewBox="0 0 526.815 513.957"><defs><style>.a{fill:#fff;}.b{fill:none;stroke:#ec6448;stroke-miterlimit:10;}</style></defs><g transform="translate(-79.359 -96.651)"><path class="a" d="M587.991,242.387a26.623,26.623,0,0,0,1.9-9.569L594.3,228.6l1.942-3.349,3.343-1.986,2.724-8.334,2.219-1.244c.307-.168,1.833-1.067,1.624-2.377-.185-1.149-1.519-1.876-4.329-2.355a55.022,55.022,0,0,1-8.59-1.908l-.269-.1-2.9,1.194-1.252.156v-2.222l-5.84.684-2.593.71c-1.1-1.114-4.938-4.715-9.091-5.464-2.572-.455-3.289-.053-4.085.612-.452.377-.919.768-2.862.768h-8.276l-1.561-3.172-.253-.107c-2.23-.936-5.071-1.978-5.962-1.681-1.012.333-2.032,2.041-2.318,2.555l-.278,1.581h-3.472l.229-3.128-2.015-2.349-.62-1.9-2.1-.548-.8-5.437-.319-.179c-2.1-1.174-5.751-3.143-6.629-3.143-.62,0-3.445-.185-4.744-.267l-2.558-.568-6.5-.574-2.726,1.658-2.447-.24-4.874-.786L503.9,181.7h-.394c-7.29,0-7.29.952-7.278,1.513a3.277,3.277,0,0,1-1.444.762l-3.817,1.456-3.909-5.843-1.615-.543-1.929-3.373-6.376-1.412-2.993-3.2-6.762-1.453c-.3-7.618-1.117-8.172-1.392-8.357a13.19,13.19,0,0,1-1.58-1.365v-4.008l.739-2.293c.505-.746,2.241-3.485,1.539-5.051a1.779,1.779,0,0,0-1.571-1.027,34.361,34.361,0,0,0-5.878,0l-.374.035-.189.33c-.666,1.149-2.831,5-2.831,6.212a47.068,47.068,0,0,1-.969,5.248l-6.971,2.019-4.672-2.1-6.31-.064a3.006,3.006,0,0,1,1.928-1.906c1.957-.794,3.3-2.567,3.126-4.124-.064-.574-.459-1.949-2.74-2.3-2.355-.375-2.819-1.879-2.911-2.489l1.5-1.87h1.975l-.575-1.1c-1.378-2.628-4.81-8.74-6.927-8.74h-9.67l-3.265,5.139-1.165,2.381L416.2,138.84c.7-1.288,2.883-5.628,1.731-7.842a2.5,2.5,0,0,0-2.216-1.31c-1.14-.07-2.622-.031-4.188.009-3.526.1-9.439.249-9.59-1.54-.012-.133-1.165-13.292-6.634-14.03a56.027,56.027,0,0,0-10.256,0l-.667.063v.682a8.564,8.564,0,0,1-.5,3.263,2.094,2.094,0,0,1-.38-.4,45.934,45.934,0,0,0-3.07-3.66l-.313-.305-.412.128a4.029,4.029,0,0,1-2.915-.227,2.57,2.57,0,0,1-1.042-1.967,59.622,59.622,0,0,1-.537-6.855l-.746-2.389c.464-.746,1.42-2.552.914-4a2.468,2.468,0,0,0-1.807-1.56,5.025,5.025,0,0,0-4.442.655,14.162,14.162,0,0,1-3.039,1.293,75.865,75.865,0,0,1-15.348,2.2c-3.054,0-11.576.714-13.569,2.4-1.658,1.4-5.632,5.713-5.8,5.9l-.2.22.568,35.7,1.5,1.2-1.8-.43-9.744,9.091c-.111.075-11.139,7.461-15.631,8.8-.658.2-2.013.415-3.729.691-10.127,1.63-33.841,5.446-31.419,22.976.058.293.662,2.619,5.594,4.162l-2.546.956-.235.145a23.326,23.326,0,0,1-7.5,4.433c-2.035.627-5.237-.143-8.629-.962a34.207,34.207,0,0,0-8.775-1.357c-3.764.136-9.05-.943-12.553-1.656a27.658,27.658,0,0,0-3.793-.649h-4.092l-5.11,2.1c-.35-2.519-1.575-9.039-5.1-11.553-.716-.51-1.557-1.279-1.5-2.053.053-.8,1.039-1.481,1.413-1.676l.256-.134,1.616-4.423-.838-.177c-2.909-.612-12.51-2.395-13.888.4-.215.437-.432.505-.5.527-.578.177-1.645-.43-2.587-.971a10.21,10.21,0,0,0-2.209-1.049c-1.989-.554-7.664-2.609-7.722-2.63l-.246-.043c-.151,0-1.484.029-1.9,1.047-.449,1.1.572,2.323,1.38,3.147,2.86,2.9,2.908,4.21,1.916,6.223-1.293,2.636-2.178,4.936-.853,8.523,1.1,3,4.791,5.577,6.047,6.388-.163,1.516-.508,6.113.957,8.749.371.658.782,1.316,1.2,1.987,1.429,2.288,2.906,4.651,3.208,7.719.383,3.888-1.931,8.288-1.954,8.332l-.136.255.069.282c.174.713,1.766,7.009,4.014,8.384,1.16.714,2.451,2.885,2.134,4.045-.148.543-.739.818-1.754.818h-13.64c-1.076-1.017-2.126-2.406-2.018-2.937.018-.093.191-.162.288-.2.743-.244,1.094-.64,1.044-1.171-.049-.508-.124-1.278-5.643-1.943l-.354-.043-.25.256c-1.618,1.648-3.48,3.1-3.985,3.117h-3.523l-.948.754a2.067,2.067,0,0,0-.16-1.143c-.551-1.149-2.135-1.571-4.849-1.282a20.443,20.443,0,0,1-6.3-.04c-1.285-.226-1.584.064-2.082,1.343-.638,1.626-2.178,2.387-3.668,3.123l-.482.24a8.029,8.029,0,0,0-2.775,2.9,42.3,42.3,0,0,1-4.153-3.587,16.985,16.985,0,0,1-3.094-5.553l-.145-.259c-.029-.032-2.786-3.247-3.552-5.587-.09-.281-.176-.585-.266-.9-.705-2.5-1.786-6.284-7.436-5.863a70.22,70.22,0,0,0-10.622,1.662c-1.67-.223-6.5-.719-7.841.644-1.387,1.4-.527,4.952-.234,6l-.241,1.671c-1.157-1.281-3.352-2.737-7.244-2.471-4.049.276-4.971,1.287-5.145,2.827a.388.388,0,0,0,0,.133c-.572.076-2.5-1.065-4.167-2.386l-.183-.143-.232-.012c-2.091-.1-9.027-.327-10.382,1.056-.716.73-2.947,1.017-4.274,1.035-.708-.24-3.869-1.151-5.257,1.191-.69,1.188-.243,2.464.189,3.7.536,1.529,1.041,2.973-.145,4.578a6.966,6.966,0,0,0-.986,6.29,5.411,5.411,0,0,0,3.424,3.64c.638.186,1.043.452,1.137.749a1.012,1.012,0,0,1-.11.7H81.669l-.2.165c-.754.618-2.46,2.2-2,3.526.394,1.139,1.951,1.139,2.462,1.139,2.793,0,5.774,1.23,6.51,2.686a1.41,1.41,0,0,1-.183,1.56c-.94,1.346-3.553,1.673-5.46,1.911-1.7.211-2.816.351-3.263,1.081a1.186,1.186,0,0,0-.1,1.012c.107.328.3.864.542,1.526.814,2.235,2.718,7.464,2.427,8.94-.288,1.535-.811,3.5-1.062,4.443-.082.314-.134.516-.142.559l.714.14.017.018.255.672c1.85-.688,4.092-1,4.981-.1.464.38,2.862,2.239,4.581,1.568a2.349,2.349,0,0,0,1.387-2.032,2.459,2.459,0,0,1,1.452-2.123c1.082-.356,2.552.243,3.848,1.563a4.47,4.47,0,0,1,1.329,2.889c.188,1.325.508,2.338,2.738,2.338.615,0,1.336-.047,2.14-.1,3.54-.234,8.38-.56,13.293,2.488,4.056,2.522,13.553,8.426,13.293,11.535-.22,2.781,1.076,5.237,2.424,5.785a1.565,1.565,0,0,0,1.888-.519l1.311-1.681-.089-.357a11.843,11.843,0,0,1-.433-4.347c1.328.377,6.592,3.491,9.711,5.435l.208.128.241-.021c4.967-.458,10.784-.608,11.822-.081a6.132,6.132,0,0,1-.49,2.062,13.336,13.336,0,0,0-.951,5.408,23.656,23.656,0,0,1-.015,3.137c-.081,1.543-.139,2.657.54,3.294A1.628,1.628,0,0,0,158.8,315c.346-.052.763-.128,1.218-.212,3.566-.661,4.436-.492,4.538-.234.679,1.717,4.633,3.909,6.415,3.179.342-.143,1.128.269,1.523.936.415.705.038,1.027-.084,1.131a7.279,7.279,0,0,1-2.064,1c-1.206.446-2.344.867-2.784,1.839a2.076,2.076,0,0,0-.006,1.621,1.72,1.72,0,0,0,.942,1.084,2.776,2.776,0,0,0,2.244-.47c1.006-.511,1.655-.788,2.2-.305a10.389,10.389,0,0,0,2,1.229c1.188.62,2.532,1.322,2.714,2.253a3.225,3.225,0,0,1-1.059,2.4c-.549.656-1.139,1.3-1.72,1.937-2.267,2.48-4.41,4.822-4.139,7.514.169,1.671,1.261,3.214,3.338,4.715,4.081,2.95,5.648,6.617,7.03,9.851a22.767,22.767,0,0,0,2.645,5.029c3.405,4.423,12.966,8.659,13.374,8.839.725.316,2.827,1.688,4.858,3.016,4.733,3.092,7.064,4.55,7.987,4.55.635,0,2.482,1.14,2.557,1.839.024.23-.475.6-1.63.855-3.889.879-5.643-.343-7.671-1.76-.347-.241-.691-.482-1.046-.711-1.992-1.3-4.9-2.1-6.3-1.2a1.885,1.885,0,0,0-.82,1.92c.336,2.921,6.435,4.909,7.272,4.909.913,0,5.271.575,6.689,1.531.363.25,1.081.663,1.958,1.162,1.583.9,5.66,3.228,6.261,4.255-2.422,1.087-4.283,1.9-4.284,1.9l-.806.356.485.745c.118.183,2.871,4.518-.52,7.752a9.971,9.971,0,0,1-1.942,2.059c0-.06-.008-.133-.008-.22v-5.429c.575-1.619.972-4.417-1-5.263-.553-.243-1.194-.462-1.842-.685-1.313-.449-2.944-1.007-3.211-1.691-.4-1.006-1.261-1.989-2.225-1.777-1.1.249-1.52,1.752-1.372,4.875.169,3.743,1.522,4.536,3.14,5.129.748.273,1.241.453,1.548,1.229a19.171,19.171,0,0,1,.888,3.875,25.623,25.623,0,0,0,1.569,6.147,9.8,9.8,0,0,0,4.84,4.829,4.892,4.892,0,0,1,1.18.775c.2.414.763.827,2.348,1.961,3.514,2.517,10.828,7.754,11.217,13.322.186,2.682.624,5.756,1.072,8.587a24.447,24.447,0,0,0-2.442-5.964,29.408,29.408,0,0,0-6.389-6.924c-1.351-1.165-2.627-2.264-2.8-2.894a8.964,8.964,0,0,1,.012-2.8c.136-1.389.235-2.392-.4-2.882a1.1,1.1,0,0,0-1.131-.1l-.328.13c-1.476.578-4.227,1.655-4.227,4.738,0,1.6-.473,6.905-.853,11.173-.317,3.559-.511,5.773-.511,6.345-.018.446-.748,3.5-1.52,6.727-1.894,7.929-4.758,19.914-4.758,24.144,0,1.529.172,2.593,1.012,2.81,1.035.273,1.786-1.029,3.123-3.541a24.612,24.612,0,0,1,1.242-2.2c.759-.179,4.584,1.534,5.046,2.758.037.095.067.179-.238.365a6.446,6.446,0,0,1-4.132,1.166c-1.659-.334-2.032-.024-2.19.11a.779.779,0,0,0-.3.554,34.051,34.051,0,0,1-1.564,3.179l-.085.278c-.055.5-5.559,50.42-17.2,60.4l-.121.131c-1.4,1.949-5.651,7.143-8.569,7.771-2.447.537-3.257,1.948-3.2,3.089a2.888,2.888,0,0,0,2.726,2.557,17.881,17.881,0,0,0,2.944.11,3.142,3.142,0,0,0,.142,2.253,1.016,1.016,0,0,0,.826.423,6.85,6.85,0,0,1,.838.122c1.586.269,4.541.769,7.04-.166.878-.324,1.543-.334,1.87-.024a2.389,2.389,0,0,1,.183,2.181,41.382,41.382,0,0,1-3.137,6.138c-.061.075-1.462,1.917,1.108,4.854,1.638,1.87,3.277,2.734,4.378,2.3a1.651,1.651,0,0,0,1-1.693,8.217,8.217,0,0,1,.629-3.385l.024.026a18.064,18.064,0,0,1,2.349,3.179l.212.374h3.914l.563,2.88.691-.107c.032,0,3.263-.475,5.44,1.241,1.607,1.274,3.86,1.384,6.04,1.488a16.29,16.29,0,0,1,4.269.574c2.757.946,3.048,5.406,3.051,5.451l.076,1.3,1.061-.72a2.264,2.264,0,0,1,1.577-.281,2.909,2.909,0,0,1,1.755,1.452c2.233,3.59,4.7,3.088,7.322,2.561a9.15,9.15,0,0,0,3.149-1.681c2.212-1.56,3.389-2.144,4.613-.778.566.636,1.134,1.348,1.716,2.076,2.259,2.827,4.82,6.034,8.549,6.507,3.7.482,8.4-.917,10.085-1.481a5.1,5.1,0,0,0,4.471,2.877c.9,0,1.96-.023,3.14-.05,2.77-.064,6.214-.136,9.641.049,1.343.079,2.523.177,3.532.259,3.259.273,4.745.4,5.11-.762a6.684,6.684,0,0,0-.16-2.558c-.168-1.129-.614-4.127-.154-4.552a2.543,2.543,0,0,0,1.023-1.79c.021-.1.05-.232.078-.331a6.534,6.534,0,0,1,1.644.983c3.982,2.892,4.913,3.19,9.975,3.19,3.176,0,4.979,1.922,6.173,3.193a3.821,3.821,0,0,0,1.554,1.239c.617.159,2.424.473,4.338.807,1.623.281,3.274.568,4.164.755.647.131,1.294.957,1.92,1.754.835,1.064,1.78,2.27,3.138,2.27.524,0,1.4-.021,2.427-.047,2.5-.061,6.24-.151,7.688.021-.267.852-.578,2.457,1.928,4.836a12.312,12.312,0,0,0,6.258,3.015c1.435.328,2.262.548,2.59,1.21a3.6,3.6,0,0,1,.182,2.122c-.131,1.12-.308,2.654,1.835,3.535,2.677,1.087,6.722,2.723,11.73-2.978,2.512-2.87,4.417-1.574,7.569.977a16.978,16.978,0,0,0,4.741,3.044c.83.295,1.563.591,2.235.862a12.083,12.083,0,0,0,4.5,1.21c1.52,0,3.175-.568,5.394-2.168,1.22-.881,2.322-1.748,3.347-2.555,3.092-2.432,5.326-4.188,7.949-4.188,1.531,0,2.546-.134,3.211-.818.872-.9.855-2.416.823-5.438-.006-.676-.015-1.433-.015-2.282,0-6.953.015-23.071.015-23.071v-.33l-.238-.224c-.872-.814-3.224-3.237-3.634-4.662l0-.024c.113.023.234.049.345.073a12.546,12.546,0,0,0,2.8.351c3.343,0,4.614-1.629,5.738-3.065a6.249,6.249,0,0,0,.911-2.547c.307-1.464.549-2.358,1.336-2.454.444-.06.959-.079,1.522-.1,2.245-.095,5.318-.223,7.887-2.6a2.991,2.991,0,0,1,2.509-1.125c1,.006,2.2.006,4.539-1.908l.936-.769c11.513-9.473,18.59-13.865,21.015-13.1a.9.9,0,0,1,.621.7c1.485,5.287,3.392,5.3,6.353,4.889.469-.064.971-.134,1.51-.179,3.352-.27,12.538.008,14.836.768a15.172,15.172,0,0,1-1.448,1.026c-1.061.69-1.977,1.288-2.128,2.2a1.626,1.626,0,0,0,.376,1.29c1.184,1.5,8.989,1.855,12.258,1.939,2.166.139,5.875.145,6.434-1.424.4-1.134-.89-2.1-1.317-2.424-1.2-.9-1.662-1.777-1.581-2.25a.4.4,0,0,1,.322-.333c.482-.147,1.688.044,3.2,1.653a7.482,7.482,0,0,0,7.172,4.509h6.542l.153-.017a15.88,15.88,0,0,1,2.889-.353,1.771,1.771,0,0,0,.212,2.41,1.387,1.387,0,0,1,.223.3.427.427,0,0,1-.067.169,14.652,14.652,0,0,1-1.007,1.464c-.931,1.253-1.494,2.012-1.149,2.718a.98.98,0,0,0,.933.534c.253,0,.742-.061,1.732-.189,2.851-.366,10.427-1.343,12.6.07.829.54,1.551,1.058,2.21,1.528a13.5,13.5,0,0,0,4.146,2.335,3.145,3.145,0,0,0,.565,2.251c.8,1.042,2.294,1.458,4.463,1.238a10.615,10.615,0,0,0,4.762-1.653c1.513-.888,2.422-1.426,5.51-.079.333.147.6.275.826.385-.026,0-.05,0-.073,0-.826.063-1.478.111-1.577.8s.594.948.856,1.049c2.335.9,5.95.348,6.1.324l.708-.11-.09-.722a11.684,11.684,0,0,1-.024-3.048,4.891,4.891,0,0,1,3.21-1.4h.04c.676.011.792.287.832.375.62,1.47,1.374,2.216,2.236,2.216.752,0,1.372-.559,1.838-1.661.15-.356.275-.736.4-1.122.551-1.691,1.027-3.153,4.1-3.153a27,27,0,0,0,9.57-2.293l.617-.281-.224-.65c-1.49-4.321-2.39-5.068-2.883-5.2a2.95,2.95,0,0,1,.1-1.586,1.352,1.352,0,0,1,.695-.872,1.141,1.141,0,0,0,.82-.786,1.493,1.493,0,0,0-.562-1.351c-.122-.133-.348-.38-.383-.406.008-.015.2-.351,1.717-.781a25.257,25.257,0,0,1,4.1-.809,6.524,6.524,0,0,0,4.378-1.864c1.394-1.25,1.473-3.091,1.537-4.568.081-1.888.22-2.2.986-2.2,3.221,0,5.525-.314,7.061-1.879a4.06,4.06,0,0,0,.925-2.9c.04-1.035.113-1.267.432-1.377l.855-.284a20.624,20.624,0,0,0,4.2-1.729,25.192,25.192,0,0,0,3.537-3.022l2.851-.794c1.355-.444,5.8-2.045,6.154-4.049a1.744,1.744,0,0,0-.748-1.708,5.414,5.414,0,0,0-2.195-1.149,16.251,16.251,0,0,1,1.536-3.129l.122-.186v-2.847l2.518-1.4a6.139,6.139,0,0,0,4.036-6.037,8.151,8.151,0,0,0-2.789-5.722,1.528,1.528,0,0,0-.082-1.381c-.545-.84-1.841-.919-4.326-.25-1.864.5-3.961,1.3-5.986,2.079-2.363.905-5.933,2.268-6.536,1.929-1.131-2.312-5-6.047-12.351-5.727-.336-1.441-1.13-4.085-2.5-4.654a2.2,2.2,0,0,1-1.061-.94,2.372,2.372,0,0,0-1.168-1.02l-.337-.113a5.924,5.924,0,0,1,.176-2.109c1.062-.478,1.224-2.531,1.224-3.735v-.514l-3.888-1.523c-.218-.221-.466-.585-.433-.766.011-.067.143-.226.56-.385,2.865-1.1,3.758-2.558,4-3.579a19.586,19.586,0,0,0,.049-4.329l4.625-4.414-3.349-3.993a3.45,3.45,0,0,0,.681-2.9,1.973,1.973,0,0,0-1.819-1.146,31.414,31.414,0,0,0-4.887.146,28.377,28.377,0,0,1-3.524.144,3.9,3.9,0,0,0-.528-1.017,3.709,3.709,0,0,1-.772-2.149,7.868,7.868,0,0,1,.092-1.116c.174-1.3.206-2.219-1.276-4.822l-.241-.423-2.488.289c-.734-1.152-1.9-3.526-1.16-4.97.681-1.322,2.9-1.581,4.662-1.554a3.764,3.764,0,0,0,2.685.533c1.548-.285,2.955-1.525,4.188-3.685,1.388-2.459,2.581-2.25,3.955-2.007,1.154.2,2.734.479,3.7-1.671a10.75,10.75,0,0,0,.693-6.441,4.666,4.666,0,0,1-.09-1.2,3.48,3.48,0,0,1,.139-.429c.365-.954.278-1.5-1.043-3.752a15.151,15.151,0,0,0-4.637-4.317,9.153,9.153,0,0,1-1.687-1.314c-.421-.568-.814-3.973-.936-6.8l-.03-.716h-3.988l-.307.069a1.46,1.46,0,0,1-1.423-.147c-.724-.56-1.777-2.474-.907-9,1.52-.037,5.258-.333,7.247-2.3a4.3,4.3,0,0,0,1.316-3.176c0-4.926-4.932-8.711-5.905-9.41l-2.276-4.37-3.364-.29a1.232,1.232,0,0,1-.241-.907c.115-.408.731-.789,1.69-1.049l.31-.084.151-.29a7.072,7.072,0,0,0,.342-5.269,7.371,7.371,0,0,0-4.155-4.049c.383-1.209.382-2.05-.008-2.5a1.06,1.06,0,0,0-1.1-.316c-.989.26-13.551,3.514-15.761,4.086l-1.842-1.343-.259.017c-5.057.33-5.057,1.407-5.057,1.868a9.814,9.814,0,0,0,.507,2.125c.411,1.41,1.177,4.034.905,4.771a3.447,3.447,0,0,1-3.024,2.662c-2.094.473-7.16.956-8.371,1.068-.243-.194-.484-.472-.467-.646.014-.157.314-.533,1.352-.939a36.817,36.817,0,0,0,5.86-2.847l.4-.252-.311-2.5,1.232-3.013a1.831,1.831,0,0,0,.485-1.383,3.013,3.013,0,0,0-1.793-2.183c-.609-.4-2.21-1.731-2.316-3.033a1.968,1.968,0,0,1,.768-1.619c1.3-1.207,1.908-2.381,1.813-3.488a2.5,2.5,0,0,0-.552-1.365,17.405,17.405,0,0,1,4.112-4.814c1.409-.963,8.774-7.143,8.774-8.68a2.828,2.828,0,0,0-.44-1.2c-.534-1.047-1.427-2.8-.867-4.475.4-1.212,1.531-2.261,3.346-3.117,7.189-3.384,7.791-5.211,7.78-6.707.226-.739,3.453-4.085,6.315-6.759l.1-.116a42.288,42.288,0,0,0,3.914-6.829,10.992,10.992,0,0,1,1.642-2.447c1.088-1.366,2.117-2.656,1.639-3.834-.423-1.046-1.8-1.314-2.8-1.424l-.261-.027c.488-1.6,1.394-3.526,2.293-3.787l.522-.156c1.139-.342,2.862-.861,3.479-.441.055.037.2.136.25.525.285,2.273,3.158,2.88,4.774,2.88h0l5.185.3.217-.169c.641-.5,3.837-3.1,3.837-5.049,0-.346-.012-.707-.023-1.064a8.366,8.366,0,0,1,.069-2.116,3.573,3.573,0,0,0,2.14-3.221c0-1.29-1.491-3.378-1.8-3.793l-1.688-2.21.751-3.057,1.334-9.52,1.722-2.054-1.142-5.806-.267-6.131,5.724-7.777Z" transform="translate(0 0)"/><path class="b" d="M257.088,133.111a68.622,68.622,0,0,1,13.377,3.323c7.249,2.589,3.625,8.285,2.071,12.426s-2.071,5.695-.517,10.872a29.209,29.209,0,0,1,1.552,10.356c0,3.106,5.7,4.141,4.143,6.212a36.281,36.281,0,0,1-4.66,4.66s-1.552,6.212-5.695,7.247a7.53,7.53,0,0,0-5.177,5.179s6.212,4.658,2.071,5.695-6.731,8.284-6.731,8.284l-7.766,2.071h-8.284l-4.66,6.212,3.106,9.32s0,6.212-4.658,8.284,6.73,10.355,3.106,12.944,0,3.625,1.035,6.731-6.212,6.73-6.73,9.837-2.071,5.177-6.214,8.8-1.552,8.8-10.355,6.212-4.66-1.035-8.8,0-1.036,1.554-1.036,7.766-.517,5.177-3.624,8.285,1.035,13.461,3.106,14.5,4.143-1.552,6.731,3.108,1.552,4.658,11.39,3.106.517,7.247,9.837,12.425,2.071,5.177,2.589,10.356,12.944,12.425,15.532,12.425,4.143,5.7,10.355,2.589.517-3.106,6.212-3.624,13.98,1.035,23.3-1.554,15.013-1.552,22.262-5.177-3.106-9.837,1.036-11.39,4.141-1.036,5.695-3.106,3.624-1.554,8.284-1.554,2.071,0,1.554-3.624.517-4.143,1.552-5.695-.517-3.625-2.589-6.214,1.554-7.249.517-8.8-5.177-4.143-4.658-7.249,1.552-4.66,0-6.214-1.036-5.177.517-10.355-1.036-6.212-6.731-8.8,8.8-4.66,6.731-8.8,9.837-3.108,6.212-8.8-6.73-4.66-5.177-7.249,1.036-4.66,2.071-9.318,8.8-2.589,11.909-2.589,6.212-5.177,4.141-8.285,5.695-5.177,4.66-7.247-6.212-6.214-6.212-10.874,5.695-7.247,9.318-10.872-1.035-5.695-2.071-8.284,4.143-4.143,1.554-8.284,2.589-2.589,6.214-6.214,7.473-14.435,7.473-14.435l5.251-8.253.751-7.876,5.251-3.376" transform="translate(64.303 19.191)"/><path class="b" d="M185.318,459.575s-.991-6.044,2.117-7.6,5.695-5.177,7.766-7.249,3.106-1.035,5.695-6.73,5.695-6.214,2.589-9.837-1.036-5.177-5.177-7.766-9.837-2.589-8.8-6.731,4.66-9.318,4.66-13.461,3.106-8.284,9.32-7.249,13.978-4.66,18.121-3.624,3.106-3.106,11.39-1.554,1.036-2.071,6.731-3.624,7.249-2.589,5.177-5.177a20.759,20.759,0,0,1-3.106-6.731l4.141-5.177,4.143,3.106.517-6.212s-.517-5.177,1.036-6.212,4.141-1.554,7.247-4.143,0-4.143,4.66-7.249,4.66-4.66,4.66-9.32-5.695-7.247,0-8.284,5.695.517,9.32,1.036,2.795,8.9,6.73,7.247c0,0-.517-3.106,5.695-4.141s6.731,0,8.285,3.106,5.177,11.39,3.106,13.461,1.035,5.177,2.589,5.7,2.589-2.071,6.212-1.554,5.7-7.766,8.285-9.837,6.73-7.249,9.836-7.249,5.177,5.177,5.177,7.249,1.554,7.249,5.7,8.8-2.071-9.32,1.035-11.909,7.249.517,10.355-2.589,1.554-5.695,5.177-4.143-2.071,8.284,2.071,8.8,3.106-3.108,6.73-2.589,6.731,1.035,9.32,3.106,1.036,7.766,4.143,10.355,1.035,7.766,1.552,10.355,3.625.517,5.7,4.143-4.143,7.247,2.07,5.695,8.8-2.589,10.874-2.589,6.212-.517,6.212-.517l7.249,4.658,2.589,3.108.517,7.247s3.923,1.832,4.143,3.108c.314,1.839-4.143,6.212-4.143,6.212l1.554,9.837-3.625,5.695-5.695,3.625c-3.624,5.177-6.212,1.035-8.8,6.73s-2.589,7.249-2.589,7.249" transform="translate(55.694 121.987)"/><path class="b" d="M163.294,188.062s-.481,3.465,2.625,4.5,3.013,1.928,7.156,1.928,6.73-3.106,9.836-1.035,1.783,1.583,6.731,3.106c6.731,2.071,5.695,1.554,9.32,2.071s2.589-3.106,8.8-4.66,9.837-5.695,9.837-2.589-2.071,9.32,2.071,10.355,10.872-5.695,13.978-4.66.517,3.106,3.106,5.7,3.625,1.035,9.32,5.176a40.335,40.335,0,0,0,10.872,5.7l3.106,1.035" transform="translate(44.166 48.115)"/><path class="b" d="M129.619,252.948s6.286-6.115,8.357-4.043-5.177,5.177-.517,5.177,7.249-2.589,10.355-2.589,3.106-5.177,3.106-5.177l7.766-6.731h11.909l8.284-6.73c8.8-1.036,3.106,5.177,9.318,4.66s4.66-2.071,6.214-6.731-.517-5.695,1.035-8.284-.517-9.837-.517-9.837l1.554-5.695s2.071-5.177.517-9.32.517-6.731.517-6.731" transform="translate(26.455 49.618)"/><path class="b" d="M286.039,259.775l2.589,3.625c2.589,3.624,9.836,0,9.836,0s3.108,4.66,5.7,3.624,1.552-6.731,4.659-5.695,3.108,2.589,5.179,8.284,10.355,5.695,13.461,7.766,0,7.249-1.554,8.8-6.212,0-6.212,3.106-3.106,6.212,2.589,6.212,9.837-1.552,12.426-.517,6.212.517,8.284-3.624-1.554-2.071,4.141-1.554,7.249-4.66,8.285-2.071-4.66,7.766,1.552,6.731,6.731-10.355,8.8-15.015,3.106-4.66,7.766-4.66,2.589,7.249,6.73,8.8a28.723,28.723,0,0,0,8.8,1.552s4.66-.517,5.695,1.036,9.837,0,9.837,0l6.212-6.731,7.249-3.624" transform="translate(108.789 85.862)"/><path class="b" d="M265.99,272.326c1.554,1.035-1.552,6.73,3.625,8.8s7.247,4.66,9.836,6.214,4.143,5.177,2.071,6.212-2.071,2.589.517,4.143,5.7,3.106,2.589,5.695l-9.318,7.766s.517,6.73,3.106,10.872.047,16.3-2.071,16.569c0,0-1.035,3.106-6.73,6.212s-7.249,6.731-6.214,8.284,7.249,2.071,2.589,4.143-7.766,4.66-7.766,6.212" transform="translate(94.148 92.469)"/><path class="b" d="M165.394,301.5s2.419-5.519,8.114-5.519,1.554,3.624,6.214,3.106,4.658-5.177,10.355-4.143,3.624-4.658,3.624-4.658c2.071-6.731-5.177-11.391-4.143-16.569s1.554-9.32-2.07-11.909-5.7-6.73-1.554-7.247,2.589,3.106,5.695,2.071,2.589-1.036,6.214-5.177,4.658-2.589,8.284-2.589,3.6.466,7.249-1.036l7.247-5.695" transform="translate(45.286 76.578)"/><path class="b" d="M295.2,197.362s2.071,3.108,3.624,5.695-.517,5.7,3.108,6.214,6.73-1.036,8.284,1.035,5.177,5.177,5.177,7.766,2.071,4.66,10.355,4.143,8.8,4.66,12.944-.517,4.66-7.766,8.284-5.695,9.32.517,7.766,3.106,1.406,3.163,2.071,4.66a24.008,24.008,0,0,1,2.071,8.8s.517,4.66,7.249,8.8,10.872,1.036,12.426-1.552c0,0-1.554-1.554,6.212-3.625s0-6.73,3.106-8.284-2.589,3.625,4.66-3.624,1.554-10.874,7.249-7.249,2.071-6.214,5.695-4.143,4.66,5.177,8.284,4.66,11.909,0,13.461.517,2.589,3.625,5.177,5.7,12.945,2.07,12.945,5.695a38.611,38.611,0,0,1-1.554,8.8,60.511,60.511,0,0,0,7.249,4.66c3.106,1.554,2.517,8.883,2.517,8.883" transform="translate(113.609 53.01)"/><path class="b" d="M248.726,165.477a15.032,15.032,0,0,0,6.214,1.554s7.249-2.071,10.355-1.036,2.071,4.143,5.177,2.589,5.177-3.106,7.766-1.035,2.592,3.721,4.143,3.624c0,0,11.091.232,12.944,0,0,0,10.355-3.106,12.944-1.552s-.519,5.177,3.624,7.766,8.284,4.66,8.284,4.66" transform="translate(89.149 36.227)"/><path class="b" d="M243.978,175.314s3.106,4.66,2.07,7.249-2.07,8.284,1.554,9.837,3.624,9.837,6.212,10.355,4.143,3.624,6.214,4.66-1.036,5.695,2.071,6.73,2.589-1.035,5.695-1.035,5.177-2.071,7.249-1.554,3.624,3.625,7.249,5.177-2.557,5.53.517,6.214c0,0,9.837,1.552,11.907,0s3.108-3.625,4.66-2.589,5.177,1.552,5.177,1.552" transform="translate(86.65 41.405)"/><path class="b" d="M424.042,324.117l-5.087-2.268-4.143,4.66c0,3.624-7.766-5.177-11.39-3.106s-6.212,5.695-3.624,6.212,8.284,1.036,6.73,4.66-5.695,4.66-8.284,4.66-3.106,1.035-8.284,4.141-6.731,1.036-6.731,4.142,1.554,6.731-4.66,8.284-4.658,5.177-4.658,7.766-3.108.519-4.66,3.625-3.106,6.73,1.552,6.212,7.249-.517,7.766,2.071,0,2.589-1.552,5.177-.517,2.589-4.66,3.624-8.8-3.624-8.8-3.624c-10.356-.517-6.632-3.761-11.909-2.589,0,0-8.8,1.035-12.426,1.035h-5.695" transform="translate(133.785 118.536)"/></g></svg>