<svg xmlns="http://www.w3.org/2000/svg" xmlns:xlink="http://www.w3.org/1999/xlink" width="194.227" height="194.227" viewBox="0 0 194.227 194.227"><defs><style>.a{fill:#f6f6f6;}.b{fill:#f19181;}.c{fill:#ec6548;}.d{fill:none;stroke:#ec6548;stroke-linecap:round;stroke-linejoin:round;stroke-width:3.8px;}.e{filter:url(#a);}</style><filter id="a" x="0" y="0" width="194.227" height="194.227" filterUnits="userSpaceOnUse"><feOffset dy="3" input="SourceAlpha"/><feGaussianBlur stdDeviation="3" result="b"/><feFlood flood-opacity="0.161"/><feComposite operator="in" in2="b"/><feComposite in="SourceGraphic"/></filter></defs><g transform="translate(-898 -340)"><g class="e" transform="matrix(1, 0, 0, 1, 898, 340)"><rect class="a" width="176.227" height="176.227" transform="translate(9 6)"/></g><g transform="translate(937 376)"><path class="b" d="M140.53,247.991a7.861,7.861,0,0,1-7.072-4.371l-11.348-22.7A19.984,19.984,0,0,1,139.985,192h1.09a19.984,19.984,0,0,1,17.874,28.923L147.6,243.62A7.861,7.861,0,0,1,140.53,247.991Z" transform="translate(-80.38 -160.123)"/><path class="c" d="M171.2,254.4a11.2,11.2,0,1,1,11.2-11.2A11.21,11.21,0,0,1,171.2,254.4Zm0-18.664a7.466,7.466,0,1,0,7.465,7.465A7.473,7.473,0,0,0,171.2,235.733Z" transform="translate(-111.048 -190.791)"/><rect class="c" width="5" height="5" transform="translate(46 81)"/><rect class="c" width="3" height="3" transform="translate(33 95)"/><rect class="c" width="5" height="5" transform="translate(90 29)"/><rect class="c" width="3" height="5" transform="translate(43 30)"/><rect class="c" width="3" height="3" transform="translate(69 15)"/><rect class="c" width="5" height="5" transform="translate(19 38)"/><rect class="c" width="3" height="3" transform="translate(70 86)"/><rect class="c" width="5" height="2" transform="translate(82 63)"/><rect class="c" width="5" height="5" transform="translate(82 63)"/><rect class="c" width="5" height="5" transform="translate(69 85)"/><rect class="c" width="5" height="5" transform="translate(31 94)"/><rect class="c" width="5" height="5" transform="translate(42 30)"/><rect class="c" width="5" height="5" transform="translate(68 14)"/></g><path class="d" d="M190.456,128.483a5.814,5.814,0,0,0,.416-2.09l.963-.922.424-.731.73-.434.6-1.82.485-.272c.067-.037.4-.233.355-.519-.04-.251-.332-.41-.945-.514a12.019,12.019,0,0,1-1.876-.417l-.059-.022-.634.261-.273.034v-.485l-1.276.149-.566.155a4.3,4.3,0,0,0-1.986-1.194c-.562-.1-.718-.012-.892.134-.1.082-.2.168-.625.168h-1.808l-.341-.693-.055-.023a3.3,3.3,0,0,0-1.3-.367c-.221.073-.444.446-.506.558l-.061.345h-.758l.05-.683-.44-.513-.135-.416-.459-.12-.176-1.188-.07-.039a7.117,7.117,0,0,0-1.448-.686c-.135,0-.752-.04-1.036-.058l-.559-.124-1.419-.125-.6.362-.534-.052-1.065-.172-.483-.741H172c-1.592,0-1.592.208-1.59.33a.716.716,0,0,1-.315.166l-.834.318-.854-1.276-.353-.119-.421-.737-1.393-.308-.654-.7-1.477-.317c-.065-1.664-.244-1.785-.3-1.825a2.882,2.882,0,0,1-.345-.3v-.876l.161-.5c.11-.163.489-.761.336-1.1a.389.389,0,0,0-.343-.224,7.506,7.506,0,0,0-1.284,0l-.082.008-.041.072a5.38,5.38,0,0,0-.618,1.357,10.281,10.281,0,0,1-.212,1.146l-1.523.441-1.02-.46-1.378-.014a.657.657,0,0,1,.421-.416.984.984,0,0,0,.683-.9c-.014-.125-.1-.426-.6-.5a.666.666,0,0,1-.636-.544l.328-.408h.431l-.126-.24c-.3-.574-1.051-1.909-1.513-1.909h-2.112l-.713,1.123-.254.52-.438-1.162c.153-.281.63-1.229.378-1.713a.546.546,0,0,0-.484-.286c-.249-.015-.573-.007-.915,0-.77.021-2.062.054-2.095-.336,0-.029-.254-2.9-1.449-3.065a12.238,12.238,0,0,0-2.24,0l-.146.014v.149a1.871,1.871,0,0,1-.109.713.456.456,0,0,1-.083-.086,10.03,10.03,0,0,0-.67-.8l-.068-.067-.09.028a.88.88,0,0,1-.637-.05.561.561,0,0,1-.228-.43,13.027,13.027,0,0,1-.117-1.5l-.163-.522a1.149,1.149,0,0,0,.2-.873.539.539,0,0,0-.395-.341,1.1,1.1,0,0,0-.97.143,3.093,3.093,0,0,1-.664.282,16.571,16.571,0,0,1-3.352.48,7.56,7.56,0,0,0-2.964.524c-.362.307-1.23,1.248-1.267,1.288l-.045.048.124,7.8.327.263-.393-.094-2.128,1.986a21.7,21.7,0,0,1-3.414,1.923c-.144.043-.44.091-.814.151-2.212.356-7.392,1.19-6.863,5.019.013.064.145.572,1.222.909l-.556.209-.051.032a5.1,5.1,0,0,1-1.638.968,4.249,4.249,0,0,1-1.885-.21,7.472,7.472,0,0,0-1.917-.3,13.367,13.367,0,0,1-2.742-.362,6.041,6.041,0,0,0-.828-.142h-.894l-1.116.459a4.089,4.089,0,0,0-1.115-2.523c-.156-.111-.34-.279-.328-.448s.227-.323.309-.366l.056-.029.353-.966-.183-.039c-.635-.134-2.732-.523-3.034.087-.047.1-.094.11-.11.115-.126.039-.359-.094-.565-.212a2.23,2.23,0,0,0-.482-.229c-.434-.121-1.674-.57-1.687-.574l-.054-.009c-.033,0-.324.006-.414.229-.1.241.125.507.3.687.625.633.635.92.418,1.359a2.083,2.083,0,0,0-.186,1.862,3.5,3.5,0,0,0,1.321,1.4,3.784,3.784,0,0,0,.209,1.911c.081.144.171.287.262.434a3.008,3.008,0,0,1,.274,3.506l-.03.056.015.062c.038.156.386,1.531.877,1.831a1.065,1.065,0,0,1,.466.883c-.032.119-.161.179-.383.179h-2.979c-.235-.222-.464-.525-.441-.641,0-.02.042-.035.063-.043.162-.053.239-.14.228-.256s-.027-.279-1.233-.424l-.077-.009-.055.056a2.877,2.877,0,0,1-.87.681h-.769l-.207.165a.451.451,0,0,0-.035-.25c-.12-.251-.466-.343-1.059-.28a4.465,4.465,0,0,1-1.375-.009c-.281-.049-.346.014-.455.293a1.424,1.424,0,0,1-.8.682l-.105.052a1.754,1.754,0,0,0-.606.634,9.239,9.239,0,0,1-.907-.783,3.71,3.71,0,0,1-.676-1.213l-.032-.057a4.842,4.842,0,0,1-.776-1.22c-.02-.061-.038-.128-.058-.2a1.416,1.416,0,0,0-1.624-1.281,15.334,15.334,0,0,0-2.32.363c-.365-.049-1.42-.157-1.713.141s-.115,1.082-.051,1.311l-.053.365a1.846,1.846,0,0,0-1.582-.54c-.884.06-1.086.281-1.124.617a.085.085,0,0,0,0,.029,2.375,2.375,0,0,1-.91-.521l-.04-.031-.051,0c-.457-.022-1.972-.071-2.268.231a1.712,1.712,0,0,1-.933.226c-.155-.052-.845-.251-1.148.26a.939.939,0,0,0,.041.808.959.959,0,0,1-.032,1,1.521,1.521,0,0,0-.215,1.374,1.182,1.182,0,0,0,.748.8c.139.041.228.1.248.164a.221.221,0,0,1-.024.153h-.945l-.044.036c-.165.135-.537.481-.437.77.086.249.426.249.538.249a1.75,1.75,0,0,1,1.422.587.308.308,0,0,1-.04.341c-.205.294-.776.365-1.193.417-.37.046-.615.077-.713.236a.259.259,0,0,0-.023.221c.023.072.066.189.118.333a7.186,7.186,0,0,1,.53,1.953c-.063.335-.177.764-.232.971-.018.069-.029.113-.031.122l.156.031,0,0,.056.147c.4-.15.894-.219,1.088-.022.1.083.625.489,1,.342a.513.513,0,0,0,.3-.444.537.537,0,0,1,.317-.464.9.9,0,0,1,.84.341.976.976,0,0,1,.29.631c.041.289.111.511.6.511.134,0,.292-.01.467-.022a4.551,4.551,0,0,1,2.9.543c.886.551,2.96,1.84,2.9,2.519a1.3,1.3,0,0,0,.529,1.264.342.342,0,0,0,.412-.113l.286-.367-.019-.078a2.587,2.587,0,0,1-.095-.95,17.847,17.847,0,0,1,2.121,1.187l.045.028.053,0a10.008,10.008,0,0,1,2.582-.018,1.339,1.339,0,0,1-.107.45,2.913,2.913,0,0,0-.208,1.181,5.165,5.165,0,0,1,0,.685c-.018.337-.03.58.118.719a.356.356,0,0,0,.308.08c.076-.011.167-.028.266-.046.779-.144.969-.107.991-.051a1.5,1.5,0,0,0,1.4.694c.075-.031.246.059.333.2s.008.224-.018.247a1.589,1.589,0,0,1-.451.217c-.263.1-.512.189-.608.4a.454.454,0,0,0,0,.354.376.376,0,0,0,.206.237.606.606,0,0,0,.49-.1c.22-.112.361-.172.481-.067a2.27,2.27,0,0,0,.438.268c.259.135.553.289.593.492a.7.7,0,0,1-.231.524c-.12.143-.249.284-.376.423-.5.542-.963,1.053-.9,1.641a1.514,1.514,0,0,0,.729,1.03,4.583,4.583,0,0,1,1.536,2.152,4.972,4.972,0,0,0,.578,1.1,9.493,9.493,0,0,0,2.921,1.931c.158.069.617.369,1.061.659a6.525,6.525,0,0,0,1.745.994c.139,0,.542.249.558.4.005.05-.1.13-.356.187a1.786,1.786,0,0,1-1.676-.384c-.076-.053-.151-.105-.228-.155a1.528,1.528,0,0,0-1.377-.263.412.412,0,0,0-.179.419c.073.638,1.406,1.072,1.588,1.072a4.2,4.2,0,0,1,1.461.334c.079.055.236.145.428.254a6.373,6.373,0,0,1,1.368.93c-.529.237-.936.416-.936.416l-.176.078.106.163a1.361,1.361,0,0,1-.114,1.693,2.179,2.179,0,0,1-.424.45c0-.013,0-.029,0-.048v-1.186c.126-.354.212-.965-.219-1.15-.121-.053-.261-.1-.4-.15-.287-.1-.643-.22-.7-.369-.088-.22-.275-.434-.486-.388-.24.054-.332.383-.3,1.065.037.817.332.991.686,1.12.163.06.271.1.338.268a4.188,4.188,0,0,1,.194.846,5.6,5.6,0,0,0,.343,1.343,2.14,2.14,0,0,0,1.057,1.055,1.068,1.068,0,0,1,.258.169c.045.09.167.181.513.428.767.55,2.365,1.694,2.45,2.91.041.586.136,1.257.234,1.876a5.34,5.34,0,0,0-.533-1.3,6.424,6.424,0,0,0-1.4-1.512,2.4,2.4,0,0,1-.612-.632,1.958,1.958,0,0,1,0-.612c.03-.3.051-.522-.088-.629a.24.24,0,0,0-.247-.023l-.072.028c-.322.126-.923.361-.923,1.035,0,.348-.1,1.508-.186,2.44-.069.777-.112,1.261-.112,1.386,0,.1-.163.763-.332,1.469a38.045,38.045,0,0,0-1.039,5.274c0,.334.038.566.221.614.226.06.39-.225.682-.773a5.375,5.375,0,0,1,.271-.48,1.805,1.805,0,0,1,1.1.6c.008.021.015.039-.052.08a1.408,1.408,0,0,1-.9.255c-.362-.073-.444-.005-.478.024a.17.17,0,0,0-.066.121,7.436,7.436,0,0,1-.342.694l-.019.061c-.012.11-1.214,11.013-3.757,13.193l-.026.029c-.3.426-1.234,1.56-1.872,1.7-.534.117-.711.425-.7.675a.631.631,0,0,0,.6.558,3.9,3.9,0,0,0,.643.024.686.686,0,0,0,.031.492.222.222,0,0,0,.18.092,1.493,1.493,0,0,1,.183.027,3.072,3.072,0,0,0,1.538-.036c.192-.071.337-.073.408-.005a.522.522,0,0,1,.04.476,9.041,9.041,0,0,1-.685,1.341c-.013.016-.319.419.242,1.06.358.408.716.6.956.5a.361.361,0,0,0,.218-.37,1.8,1.8,0,0,1,.137-.739l.005.006a3.945,3.945,0,0,1,.513.694l.046.082h.855l.123.629.151-.023a1.743,1.743,0,0,1,1.188.271,2.262,2.262,0,0,0,1.319.325,3.559,3.559,0,0,1,.933.125c.6.207.666,1.181.666,1.191l.017.284.232-.157a.5.5,0,0,1,.344-.061.635.635,0,0,1,.383.317,1.248,1.248,0,0,0,1.6.559,2,2,0,0,0,.688-.367c.483-.341.74-.468,1.008-.17.124.139.248.294.375.453a3.154,3.154,0,0,0,1.867,1.421,5.654,5.654,0,0,0,2.2-.323,1.114,1.114,0,0,0,.977.628c.2,0,.428-.005.686-.011.605-.014,1.357-.03,2.106.011.293.017.551.039.771.057.712.06,1.037.086,1.116-.166a1.459,1.459,0,0,0-.035-.559c-.037-.247-.134-.9-.034-.994a.555.555,0,0,0,.223-.391c0-.022.011-.051.017-.072a1.427,1.427,0,0,1,.359.215,2.715,2.715,0,0,0,2.179.7,1.782,1.782,0,0,1,1.348.7.835.835,0,0,0,.339.271c.135.035.529.1.948.176.354.061.715.124.909.165.141.029.283.209.419.383.182.232.389.5.685.5.114,0,.3,0,.53-.01.546-.013,1.363-.033,1.679,0-.058.186-.126.537.421,1.056a2.689,2.689,0,0,0,1.367.658c.313.072.494.12.566.264a.787.787,0,0,1,.04.463.62.62,0,0,0,.4.772,1.943,1.943,0,0,0,2.562-.65c.549-.627.965-.344,1.653.213a3.709,3.709,0,0,0,1.036.665c.181.064.341.129.488.188a2.639,2.639,0,0,0,.982.264,2.012,2.012,0,0,0,1.178-.473c.266-.192.507-.382.731-.558a3.072,3.072,0,0,1,1.736-.915.929.929,0,0,0,.7-.179c.19-.2.187-.528.18-1.188,0-.148,0-.313,0-.5,0-1.519,0-5.039,0-5.039v-.072l-.052-.049a3.47,3.47,0,0,1-.794-1.018v-.005l.075.016a2.74,2.74,0,0,0,.611.077,1.4,1.4,0,0,0,1.253-.669,1.365,1.365,0,0,0,.2-.556c.067-.32.12-.515.292-.536.1-.013.209-.017.332-.022a2.5,2.5,0,0,0,1.723-.568.653.653,0,0,1,.548-.246,1.345,1.345,0,0,0,.992-.417l.2-.168c2.515-2.069,4.06-3.029,4.59-2.861a.2.2,0,0,1,.136.154c.324,1.155.741,1.158,1.388,1.068.1-.014.212-.029.33-.039a14.84,14.84,0,0,1,3.241.168,3.312,3.312,0,0,1-.316.224c-.232.151-.432.281-.465.481a.355.355,0,0,0,.082.282c.259.327,1.963.405,2.677.423.473.03,1.283.032,1.405-.311.088-.248-.194-.459-.288-.529-.263-.2-.363-.388-.345-.491a.088.088,0,0,1,.07-.073c.105-.032.369.01.7.361a1.634,1.634,0,0,0,1.567.985h1.429l.033,0a3.469,3.469,0,0,1,.631-.077.387.387,0,0,0,.046.526.3.3,0,0,1,.049.065.093.093,0,0,1-.015.037,3.2,3.2,0,0,1-.22.32c-.2.274-.326.439-.251.594a.214.214,0,0,0,.2.117c.055,0,.162-.013.378-.041.623-.08,2.277-.293,2.752.015.181.118.339.231.483.334a2.949,2.949,0,0,0,.906.51.687.687,0,0,0,.123.492,1.029,1.029,0,0,0,.975.27,2.318,2.318,0,0,0,1.04-.361c.33-.194.529-.311,1.2-.017.073.032.132.06.18.084h-.016c-.18.014-.323.024-.344.176s.13.207.187.229a3.163,3.163,0,0,0,1.333.071l.155-.024-.02-.158a2.551,2.551,0,0,1-.005-.666,1.068,1.068,0,0,1,.7-.305h.009c.148,0,.173.063.182.082.135.321.3.484.488.484.164,0,.3-.122.4-.363.033-.078.06-.161.088-.245.12-.369.224-.689.9-.689a5.9,5.9,0,0,0,2.09-.5l.135-.061-.049-.142c-.325-.944-.522-1.107-.63-1.135a.644.644,0,0,1,.022-.346.3.3,0,0,1,.152-.19.249.249,0,0,0,.179-.172.326.326,0,0,0-.123-.3c-.027-.029-.076-.083-.084-.089s.044-.077.375-.171a5.516,5.516,0,0,1,.895-.177,1.425,1.425,0,0,0,.956-.407,1.323,1.323,0,0,0,.336-1c.018-.412.048-.48.215-.48a2.049,2.049,0,0,0,1.542-.41.887.887,0,0,0,.2-.633c.009-.226.025-.277.094-.3l.187-.062a4.5,4.5,0,0,0,.918-.378,5.5,5.5,0,0,0,.772-.66l.623-.173c.3-.1,1.268-.447,1.344-.884a.381.381,0,0,0-.163-.373,1.182,1.182,0,0,0-.479-.251,3.549,3.549,0,0,1,.335-.683l.027-.041v-.622l.55-.306a1.341,1.341,0,0,0,.881-1.319,1.78,1.78,0,0,0-.609-1.25.334.334,0,0,0-.018-.3c-.119-.183-.4-.2-.945-.055-.407.109-.865.285-1.308.454a4.652,4.652,0,0,1-1.428.421,2.759,2.759,0,0,0-2.7-1.251c-.073-.315-.247-.892-.545-1.017a.482.482,0,0,1-.232-.205.518.518,0,0,0-.255-.223l-.074-.025a1.294,1.294,0,0,1,.038-.461c.232-.1.267-.553.267-.816v-.112l-.849-.333c-.048-.048-.1-.128-.095-.167,0-.015.031-.049.122-.084.626-.24.821-.559.874-.782a4.278,4.278,0,0,0,.011-.945l1.01-.964-.731-.872a.754.754,0,0,0,.149-.633.431.431,0,0,0-.4-.25,6.864,6.864,0,0,0-1.068.032,6.2,6.2,0,0,1-.77.031.852.852,0,0,0-.115-.222.81.81,0,0,1-.169-.469,1.72,1.72,0,0,1,.02-.244,1.4,1.4,0,0,0-.279-1.053l-.053-.092-.543.063c-.16-.252-.416-.77-.253-1.086.149-.289.632-.345,1.018-.339a.822.822,0,0,0,.586.116,1.446,1.446,0,0,0,.915-.8c.3-.537.564-.491.864-.438a.623.623,0,0,0,.808-.365,2.348,2.348,0,0,0,.151-1.407,1.019,1.019,0,0,1-.02-.262.757.757,0,0,1,.03-.094c.08-.208.061-.327-.228-.819a3.309,3.309,0,0,0-1.013-.943,2,2,0,0,1-.368-.287,5.379,5.379,0,0,1-.2-1.486l-.007-.156h-.871l-.067.015a.319.319,0,0,1-.311-.032c-.158-.122-.388-.54-.2-1.966a2.528,2.528,0,0,0,1.583-.5.94.94,0,0,0,.287-.694,2.937,2.937,0,0,0-1.29-2.055l-.5-.955-.735-.063a.269.269,0,0,1-.053-.2c.025-.089.16-.172.369-.229l.068-.018.033-.063a1.545,1.545,0,0,0,.075-1.151,1.61,1.61,0,0,0-.908-.884c.084-.264.083-.448,0-.547a.232.232,0,0,0-.241-.069l-3.443.893-.4-.293-.057,0c-1.1.072-1.1.307-1.1.408a2.145,2.145,0,0,0,.111.464,3.129,3.129,0,0,1,.2,1.042.753.753,0,0,1-.66.581c-.457.1-1.564.209-1.828.233-.053-.042-.106-.1-.1-.141s.069-.116.3-.205a8.046,8.046,0,0,0,1.28-.622l.087-.055-.068-.547.269-.658a.4.4,0,0,0,.106-.3.658.658,0,0,0-.392-.477c-.133-.088-.483-.378-.506-.662a.43.43,0,0,1,.168-.354.976.976,0,0,0,.4-.762.545.545,0,0,0-.121-.3,3.8,3.8,0,0,1,.9-1.052c.308-.21,1.916-1.56,1.916-1.9a.618.618,0,0,0-.1-.261,1.311,1.311,0,0,1-.189-.978,1.277,1.277,0,0,1,.731-.681c1.57-.739,1.7-1.138,1.7-1.465a9.63,9.63,0,0,1,1.379-1.476l.022-.025a9.239,9.239,0,0,0,.855-1.492,2.4,2.4,0,0,1,.359-.534c.238-.3.462-.58.358-.837-.092-.228-.393-.287-.612-.311l-.057-.006c.107-.349.3-.77.5-.827l.114-.034c.249-.075.625-.188.76-.1.012.008.045.03.055.115.062.5.69.629,1.043.629h0l1.133.065.047-.037c.14-.11.838-.678.838-1.1,0-.076,0-.154-.005-.232a1.827,1.827,0,0,1,.015-.462.78.78,0,0,0,.467-.7,1.968,1.968,0,0,0-.393-.828l-.369-.483.164-.668.291-2.079.376-.449-.249-1.268-.058-1.339,1.25-1.7Z" transform="translate(858.142 281.212)"/></g></svg>