<svg xmlns="http://www.w3.org/2000/svg" width="115.715" height="115.715" viewBox="0 0 115.715 115.715"><defs><style>.a{fill:#ec6548;}.b{fill:#f19181;}</style></defs><g transform="translate(-8 -8.011)"><path class="a" d="M31.037,246.39a4.378,4.378,0,0,1-4.373-4.373V223.993h-5.6A13.082,13.082,0,0,1,8,210.928V181.065A13.082,13.082,0,0,1,21.065,168h33.8v3.733h-33.8a9.343,9.343,0,0,0-9.332,9.332v29.863a9.343,9.343,0,0,0,9.332,9.332H30.4v21.757a.665.665,0,0,0,1.088.457L44.248,220.26H84.523a9.343,9.343,0,0,0,9.332-9.332v-12.04h3.733v12.04a13.082,13.082,0,0,1-13.065,13.065H46.409L34.488,244.7a4.347,4.347,0,0,1-3.451,1.687Z" transform="translate(0 -122.663)"/><path class="a" d="M329.332,98.13H325.6V88.176l4.855-6.471a3.783,3.783,0,0,0,.745-2.24,3.733,3.733,0,1,0-7.466,0v1.866H320V79.466a7.466,7.466,0,1,1,13.44,4.476l-4.108,5.478Z" transform="translate(-239.21 -49.061)"/><path class="a" d="M333.6,211.2a5.6,5.6,0,1,1,5.6-5.6A5.606,5.606,0,0,1,333.6,211.2Zm0-7.466a1.866,1.866,0,1,0,1.866,1.866A1.867,1.867,0,0,0,333.6,203.733Z" transform="translate(-245.343 -147.198)"/><path class="a" d="M109.6,275.2a5.6,5.6,0,1,1,5.6-5.6A5.606,5.606,0,0,1,109.6,275.2Zm0-7.466a1.866,1.866,0,1,0,1.866,1.866A1.867,1.867,0,0,0,109.6,267.733Z" transform="translate(-73.603 -196.266)"/><path class="a" d="M173.6,275.2a5.6,5.6,0,1,1,5.6-5.6A5.606,5.606,0,0,1,173.6,275.2Zm0-7.466a1.866,1.866,0,1,0,1.866,1.866A1.867,1.867,0,0,0,173.6,267.733Z" transform="translate(-122.672 -196.266)"/><path class="a" d="M45.6,275.2a5.6,5.6,0,1,1,5.6-5.6A5.606,5.606,0,0,1,45.6,275.2Zm0-7.466a1.866,1.866,0,1,0,1.866,1.866A1.867,1.867,0,0,0,45.6,267.733Z" transform="translate(-24.534 -196.266)"/><path class="b" d="M260.522,18.378A35.446,35.446,0,1,0,211.2,69.286V81.909a4.489,4.489,0,0,0,7.712,3.124l7.137-7.365a35.466,35.466,0,0,0,34.473-59.291ZM235.464,69.6a26.13,26.13,0,1,1,26.13-26.13A26.13,26.13,0,0,1,235.464,69.6Z" transform="translate(-147.208 0)"/><path class="a" d="M260,95.993a28,28,0,1,1,28-28A28.028,28.028,0,0,1,260,95.993Zm0-52.26A24.263,24.263,0,1,0,284.26,68,24.291,24.291,0,0,0,260,43.733Z" transform="translate(-171.74 -24.526)"/><path class="a" d="M397.443,176.424l-2.243-2.986A16.668,16.668,0,0,0,401.919,160h3.733A20.379,20.379,0,0,1,397.443,176.424Z" transform="translate(-296.865 -116.53)"/><path class="a" d="M419.074,129.643a16.646,16.646,0,0,0-1.058-3.356l3.419-1.495a20.227,20.227,0,0,1,1.3,4.11Z" transform="translate(-314.358 -89.536)"/><path class="a" d="M305.332,339.2H296v-3.733h9.332A1.867,1.867,0,0,0,307.2,333.6V328h3.733v5.6A5.606,5.606,0,0,1,305.332,339.2Z" transform="translate(-220.809 -245.335)"/><path class="a" d="M264,360h3.733v3.733H264Z" transform="translate(-196.275 -269.869)"/><path class="a" d="M232,360h3.733v3.733H232Z" transform="translate(-171.74 -269.869)"/></g></svg>