<svg xmlns="http://www.w3.org/2000/svg" width="116" height="116" viewBox="0 0 116 116"><defs><style>.a{fill:#f19181;}.b{fill:#ec6548;}</style></defs><g transform="translate(11.226 20.581)"><path class="a" d="M304,360h44.9v18.71H304Z" transform="translate(-244.129 -296.387)"/><path class="a" d="M329.677,112.839A16.839,16.839,0,1,1,312.839,96,16.838,16.838,0,0,1,329.677,112.839Z" transform="translate(-238 -94.129)"/><path class="a" d="M86.342,95.695l-3.8-3.036A21.263,21.263,0,0,0,48,109.261v14.287h1.914a7.328,7.328,0,0,1-.007-.736,7.7,7.7,0,0,1,7.77-6.748h13.1a12.77,12.77,0,0,0,9.033-3.742l3.742,3.742h-.322A7.7,7.7,0,0,1,91,122.813a7.334,7.334,0,0,1-.007.736H92.9V105.142A10.066,10.066,0,0,0,86.342,95.695Z" transform="translate(-48 -88)"/></g><path class="b" d="M71.1,241.334v9.355H54.258V230.108H50.516v20.581H35.548V224.057l8.8,5.278L46.551,218.3l9.81,2.264a9.315,9.315,0,0,1,7.252,9.116v11.651h3.742V229.683A13.039,13.039,0,0,0,57.2,216.921l-14.171-3.269v-3.686a15.047,15.047,0,0,0,4.543-6.136,9.268,9.268,0,0,0,8.511-10.183,9.558,9.558,0,0,0-8.466-8.373l-4.588-4.586-1.323,1.323A10.832,10.832,0,0,1,34,185.2H20.9a9.6,9.6,0,0,0-9.633,8.442,9.274,9.274,0,0,0,8.512,10.183,15.014,15.014,0,0,0,4.543,6.136v3.686l-14.171,3.27A13.036,13.036,0,0,0,0,229.683V254.43H71.1a3.746,3.746,0,0,0,3.742-3.742v-9.355h33.677v-3.742H74.839A3.746,3.746,0,0,0,71.1,241.334Zm-45.33-24.175,4.561,3.422-4.612,2.767-.992-5.948ZM41.719,223.4l-4.692-2.816,4.561-3.422,1.317.3ZM52.359,194a5.522,5.522,0,0,1-3.794,5.845,15.149,15.149,0,0,0,.08-1.546v-8.953A5.649,5.649,0,0,1,52.359,194Zm-35.932,4.333A5.578,5.578,0,0,1,14.994,194a5.652,5.652,0,0,1,3.716-4.654V198.3a15.147,15.147,0,0,0,.08,1.546A5.587,5.587,0,0,1,16.427,198.335Zm6.025-.034v-9.355H34a14.546,14.546,0,0,0,8.951-3.049L44.9,187.85V198.3a11.226,11.226,0,1,1-22.452,0Zm11.226,14.968a14.863,14.863,0,0,0,5.613-1.1V214.2l-5.613,4.21-5.613-4.21v-2.037A14.863,14.863,0,0,0,33.677,213.269ZM3.742,229.683a9.315,9.315,0,0,1,7.252-9.116l10.079-2.325,1.856,11.141,8.878-5.326v26.631H16.839V230.108H13.1v20.581H3.742Z" transform="translate(0 -138.43)"/><path class="b" d="M168,400h3.742v3.742H168Z" transform="translate(-128.71 -306.452)"/><path class="b" d="M168,432h3.742v3.742H168Z" transform="translate(-128.71 -330.968)"/><path class="b" d="M480,424h3.742v3.742H480Z" transform="translate(-367.742 -324.839)"/><path class="b" d="M304,392h44.9v3.742H304Z" transform="translate(-232.903 -300.323)"/><path class="b" d="M304,360h37.419v3.742H304Z" transform="translate(-232.903 -275.806)"/><path class="b" d="M480,360h3.742v3.742H480Z" transform="translate(-367.742 -275.806)"/><path class="b" d="M276.211,109.4a1.805,1.805,0,0,1,.88,1.573v7.287a11.226,11.226,0,1,0,22.452,0v-7.287a1.825,1.825,0,0,1,.9-1.585,24.385,24.385,0,0,0,12.2-21.063,24.326,24.326,0,0,0-25.329-24.3A24.628,24.628,0,0,0,264,87.881,24.336,24.336,0,0,0,276.211,109.4Zm4.622,5.119H295.8v3.742H280.832ZM282.7,95.81h-1.871a1.871,1.871,0,1,1,1.871-1.871Zm7.484,14.968h-3.742V99.552h3.742Zm-1.871,14.968A7.459,7.459,0,0,1,281.873,122h12.885A7.453,7.453,0,0,1,288.316,125.745Zm-.855-57.984q.431-.016.86-.016A20.58,20.58,0,0,1,308.9,88.326a20.631,20.631,0,0,1-10.324,17.821,5.562,5.562,0,0,0-2.746,4.631h-1.9V99.552H295.8a5.613,5.613,0,1,0-5.613-5.613V95.81h-3.742V93.939a5.613,5.613,0,1,0-5.613,5.613H282.7v11.226h-1.9a5.539,5.539,0,0,0-2.73-4.62A20.589,20.589,0,0,1,267.739,87.95,20.839,20.839,0,0,1,287.461,67.762Zm6.468,28.048V93.939A1.871,1.871,0,1,1,295.8,95.81Z" transform="translate(-202.252 -49.036)"/><path class="b" d="M402.542,120.225h3.742a16.9,16.9,0,0,0-8.417-14.584l-1.875,3.238A13.145,13.145,0,0,1,402.542,120.225Z" transform="translate(-303.381 -80.935)"/><path class="b" d="M372.21,96.532A16.834,16.834,0,0,0,368,96v3.742a13.137,13.137,0,0,1,3.274.412Z" transform="translate(-281.935 -73.548)"/><path class="b" d="M360,0h3.742V11.226H360Z" transform="translate(-275.806)"/><path class="b" d="M243.547,46.2l2.646-2.646,7.938,7.938-2.646,2.646Z" transform="translate(-186.588 -33.366)"/><path class="b" d="M447.191,51.489l7.938-7.938,2.646,2.646-7.938,7.938Z" transform="translate(-342.606 -33.366)"/></svg>