<svg xmlns="http://www.w3.org/2000/svg" width="138.096" height="115.716" viewBox="0 0 138.096 115.716"><defs><style>.a{fill:#ec6548;}.b{fill:#f19181;}</style></defs><g transform="translate(0 -40.417)"><path class="a" d="M118.476,202.525a6.931,6.931,0,0,0,11.832-4.666,6.931,6.931,0,0,0,6.676-6.676,6.931,6.931,0,0,0,6.676-6.676,6.943,6.943,0,0,0,6.7-6.92,7.02,7.02,0,0,0-.094-.942l3.193-3.193,2.581,5.163,15.344-7.671-1.992-3.981-11.36,5.682-13.492-26.986,11.712-4.593-1.624-4.144-13.263,5.2-19.843-5.953a14.018,14.018,0,0,0-4.537-.546v-.049H92.864L82.708,132.2l-1.4,4.224,8.254,2.741L77.911,168.287l-6.835-2.735-1.652,4.132,10.966,4.386,2.753-6.881,3.988,3.99-3.72,3.722a6.931,6.931,0,0,0,4.666,11.832,6.931,6.931,0,0,0,6.676,6.676,6.931,6.931,0,0,0,6.676,6.676,6.931,6.931,0,0,0,11.832,4.666l3.721-3.721Zm1.765-62.09,19.658,5.9,11.462,22.928-3.226,3.224-9.147-9.216c.817.077,1.641.124,2.471.124v-4.451a20.6,20.6,0,0,1-13.957-5.43l-5.2-4.767a8,8,0,0,0-10.739.234l-5.895,5.9a2.529,2.529,0,0,1-1.767.729,2.5,2.5,0,0,1-1.766-4.26l8.483-8.482A9.743,9.743,0,0,1,120.241,140.435Zm-26.232-.41h13.15L98.988,148.2a6.945,6.945,0,0,0,4.911,11.856,6.988,6.988,0,0,0,4.91-2.034l5.9-5.9a3.422,3.422,0,0,1,4.586-.1l5.2,4.769a25.138,25.138,0,0,0,5.706,3.935l14.981,15.093a2.5,2.5,0,0,1-3.529,3.53l-18.645-18.647-3.147,3.147L138.5,182.5a2.5,2.5,0,0,1-3.529,3.53l-18.645-18.647-3.147,3.147,18.646,18.645a2.5,2.5,0,0,1-3.529,3.53l-18.645-18.647-3.147,3.147,18.645,18.645a2.5,2.5,0,0,1-3.529,3.53l-2.51-2.511a6.617,6.617,0,0,0,.094-.941,6.941,6.941,0,0,0-6.7-6.92,6.931,6.931,0,0,0-6.676-6.676,6.931,6.931,0,0,0-6.676-6.676,6.942,6.942,0,0,0-6.92-6.7,7.027,7.027,0,0,0-.941.093l-6.353-6.353Zm-8.182,39.787a2.513,2.513,0,0,1,.729-1.766l3.913-3.911A2.5,2.5,0,0,1,94,177.664l-3.912,3.913a2.5,2.5,0,0,1-4.259-1.765Zm6.676,6.676a2.513,2.513,0,0,1,.729-1.766l3.913-3.911a2.5,2.5,0,0,1,3.529,3.529l-3.912,3.913a2.5,2.5,0,0,1-4.259-1.765Zm6.676,6.676a2.513,2.513,0,0,1,.729-1.766l3.913-3.912a2.5,2.5,0,0,1,3.529,3.529l-3.912,3.913a2.5,2.5,0,0,1-4.259-1.765Zm14.847,4.528-3.912,3.913a2.5,2.5,0,0,1-3.53-3.53l3.913-3.912a2.5,2.5,0,0,1,3.529,3.529Z" transform="translate(-50.095 -66.229)"/><path class="a" d="M95.631,381.364l3.147-3.148,3.147,3.148-3.147,3.147Z" transform="translate(-69.006 -243.75)"/><path class="a" d="M126.122,406.975l2.474-3.7,3.7,2.472-2.473,3.7Z" transform="translate(-91.007 -261.832)"/><path class="a" d="M161.3,426.5l1.7-4.111,4.112,1.7-1.7,4.112Z" transform="translate(-116.395 -275.622)"/><path class="a" d="M199.844,439.195l.869-4.363,4.361.869-.869,4.363Z" transform="translate(-144.204 -284.603)"/><path class="a" d="M348.153,74.7l2.474-3.7,3.7,2.472-2.474,3.7Z" transform="translate(-251.221 -22.067)"/><path class="a" d="M314.246,57.3l1.7-4.112,4.111,1.7L318.358,59Z" transform="translate(-226.754 -9.215)"/><path class="a" d="M277.823,47.223l.867-4.366,4.363.867-.867,4.365Z" transform="translate(-200.472 -1.761)"/><path class="a" d="M359.718,64.395h-4.451V75.522H344.141v4.451h15.577Z" transform="translate(-248.326 -17.302)"/><path class="a" d="M77.75,344.138H64.4V357.49h4.451v-8.9h8.9Z" transform="translate(-46.468 -219.159)"/><path class="a" d="M146.256,44.868h2.225V40.417h-2.225A57.669,57.669,0,0,0,106.91,55.856l3.028,3.263A53.224,53.224,0,0,1,146.256,44.868Z" transform="translate(-77.144)"/><path class="a" d="M242.461,373.61h-2.225v4.451h2.225a57.5,57.5,0,0,0,49.426-27.769l-3.8-2.317A53.082,53.082,0,0,1,242.461,373.61Z" transform="translate(-173.35 -221.927)"/><g transform="translate(0 55.134)"><path class="b" d="M12.407,159.508.129,153.371,0,93.275l35.048,11.647-1.777,3.558Z" transform="translate(0 -93.275)"/><path class="b" d="M393.294,165.865,367.143,115.94l35.876-14.075v57.518Z" transform="translate(-264.924 -99.473)"/></g></g></svg>