<svg xmlns="http://www.w3.org/2000/svg" width="115.716" height="115.716" viewBox="0 0 115.716 115.716"><defs><style>.a{fill:#f19181;}.b{fill:#ec6548;}</style></defs><path class="a" d="M8,8H119.983V22.931H8Z" transform="translate(-6.134 -6.134)"/><path class="b" d="M0,0V74.655H49.619l-4.826,4.826-1.866-1.866-21.4,21.4a9.785,9.785,0,0,0,13.838,13.838l21.4-21.4L54.9,89.586l5.89-5.89-2.639-2.639-5.89,5.89-4.826-4.826,5.89-5.89-2.639-2.639-.022.022V70.923H3.733V3.733h108.25v67.19h-9.6v3.733h13.337V0ZM32.727,110.211a6.052,6.052,0,0,1-8.559-8.559L37.328,88.493l8.559,8.559Zm15.8-15.8-8.559-8.559,2.96-2.96,8.559,8.559Z"/><path class="a" d="M223.729,175.457a31.728,31.728,0,1,1,31.729-31.729A31.764,31.764,0,0,1,223.729,175.457Zm0-54.125a22.4,22.4,0,1,0,22.4,22.4A22.421,22.421,0,0,0,223.729,121.332Z" transform="translate(-147.207 -85.871)"/><path class="b" d="M248.263,192.526a24.263,24.263,0,1,1,24.263-24.263A24.291,24.291,0,0,1,248.263,192.526Zm0-44.793a20.53,20.53,0,1,0,20.53,20.53A20.554,20.554,0,0,0,248.263,147.733Z" transform="translate(-171.741 -110.405)"/><path class="b" d="M272,272h26.129v3.733H272Z" transform="translate(-208.543 -208.543)"/><path class="b" d="M272,240h3.733v3.733H272Z" transform="translate(-208.543 -184.009)"/><path class="b" d="M304,240h3.733v3.733H304Z" transform="translate(-233.077 -184.009)"/><path class="b" d="M336,240h3.733v3.733H336Z" transform="translate(-257.612 -184.009)"/><path class="b" d="M368,240h3.733v3.733H368Z" transform="translate(-282.146 -184.009)"/><path class="b" d="M272,208h26.129v3.733H272Z" transform="translate(-208.543 -159.474)"/><path class="b" d="M32,32h3.733v3.733H32Z" transform="translate(-24.534 -24.534)"/><path class="b" d="M64,32h3.733v3.733H64Z" transform="translate(-49.069 -24.534)"/><path class="b" d="M96,32h3.733v3.733H96Z" transform="translate(-73.603 -24.534)"/><path class="b" d="M65.595,122.129v-22.4H61.862v22.4H58.129V103.466H54.4v18.664H50.664V107.2H46.931v14.931H43.2v-11.2H39.466v11.2H35.733V96H32v29.862H69.328v-3.733Z" transform="translate(-24.534 -73.603)"/></svg>