<svg xmlns="http://www.w3.org/2000/svg" width="115.716" height="115.716" viewBox="0 0 115.716 115.716"><defs><style>.a{fill:#f19181;}.b{fill:#ec6548;}</style></defs><path class="a" d="M164.6,30.019a11.193,11.193,0,0,1,9.12-7.508l2.872-6.725-9.883-9.88L160.881,9.7a31.582,31.582,0,0,0-6.986-2.9L152.455,0H138.231l-1.439,6.8a31.544,31.544,0,0,0-6.986,2.9L123.98,5.905,114.1,15.78l2.818,6.713a11.355,11.355,0,0,1,9.1,7.7l.655-1.434a20.54,20.54,0,0,1,37.258-.149Z" transform="translate(-87.485)"/><path class="a" d="M189.723,118.365,181.86,116.4V115.5a13.106,13.106,0,0,0,5.6-10.711V101.53c0-7.25-5.681-13.318-12.664-13.53a13.067,13.067,0,0,0-13.466,13.059v3.733a13.1,13.1,0,0,0,5.6,10.709v.9l-7.861,1.968a9.319,9.319,0,0,0-7.07,9.054v3.3l5.207-1.157a21.065,21.065,0,0,1,10.987.5l8.545,2.732a9.887,9.887,0,0,1,2.727.383l11.729,3.35h1.866l3.733-1.966v-7.137A9.319,9.319,0,0,0,189.723,118.365Z" transform="translate(-116.539 -67.465)"/><path class="b" d="M115.716,115.994h-4.194l-6.251,3.289a9.269,9.269,0,0,0-2.225-.915L95.184,116.4v-.894a13.106,13.106,0,0,0,5.6-10.711v-3.262c0-7.25-5.681-13.318-12.664-13.53a13.067,13.067,0,0,0-13.466,13.059V104.8a13.1,13.1,0,0,0,5.6,10.709v.9l-7.466,1.869.4.1a9.265,9.265,0,0,1,4.4,2.55l6.406-1.6v-5.911l-.931-.538a9.358,9.358,0,0,1-4.668-8.073v-3.733a9.332,9.332,0,0,1,9.621-9.327,9.65,9.65,0,0,1,9.043,9.8V104.8a9.368,9.368,0,0,1-4.671,8.076l-.933.54.007,5.906,9.325,2.329L76.06,134.658H74.917l-11.475-3.279a11.74,11.74,0,0,0-2.769-.4l-8.449-2.7a23.048,23.048,0,0,0-11.959-.545L29.642,130.1l.151-.529.069-3.449-9.843-5.742,4.244-1.061v-5.911l-.931-.538a9.358,9.358,0,0,1-4.668-8.073v-3.733a9.332,9.332,0,0,1,9.621-9.327,9.65,9.65,0,0,1,9.043,9.8V104.8a9.368,9.368,0,0,1-4.671,8.076l-.933.54.007,5.906,6.4,1.6a9.274,9.274,0,0,1,4.4-2.55l.4-.1L35.459,116.4v-.894a13.106,13.106,0,0,0,5.6-10.711v-3.262c0-7.25-5.681-13.318-12.664-13.53a13.067,13.067,0,0,0-13.466,13.059V104.8a13.1,13.1,0,0,0,5.6,10.709v.9L15.4,117.683l-9.3-5.421H0v38.674l18.361,6.119h3.576l.447-1.564,5.628,3.378a5.811,5.811,0,0,0,5.6,5.63,5.81,5.81,0,0,0,5.6,5.6,5.81,5.81,0,0,0,5.6,5.6,5.821,5.821,0,0,0,5.8,5.62,5.879,5.879,0,0,0,3.272-1.012l1.653,1.46a5.683,5.683,0,0,0,3.756,1.418h.345a5.683,5.683,0,0,0,5.672-5.606,5.677,5.677,0,0,0,5.6-5.6,5.677,5.677,0,0,0,5.6-5.6,5.739,5.739,0,0,0,5.606-5.727,5.467,5.467,0,0,0-.028-.559l33.623-16.81Zm-111.983,0H5.093l13.423,7.829-6.773,27.091-8.011-2.671Zm15.234,37.328L15.293,152.1l6.58-26.316,4.257,2.483v.533l-7.006,24.524Zm12.762,5.373a2.106,2.106,0,0,1,.612-1.48l3.281-3.281a2.093,2.093,0,0,1,2.96,2.96L35.3,160.175a2.093,2.093,0,0,1-3.572-1.48Zm5.6,5.6a2.106,2.106,0,0,1,.612-1.48l3.281-3.281a2.093,2.093,0,0,1,2.96,2.96L40.9,165.774a2.093,2.093,0,0,1-3.572-1.48Zm5.6,5.6a2.106,2.106,0,0,1,.612-1.48l3.281-3.281a2.093,2.093,0,0,1,2.96,2.96L46.5,171.373a2.093,2.093,0,0,1-3.572-1.48Zm7.692,7.692a2.093,2.093,0,0,1-1.48-3.572l3.281-3.281a2.093,2.093,0,0,1,2.96,2.96L52.1,176.972A2.106,2.106,0,0,1,50.618,177.585Zm9.026,1.866H59.3a1.934,1.934,0,0,1-1.286-.488l-1.4-1.231,1.4-1.4a5.8,5.8,0,0,0,1.176-1.734l1.7,1.413a1.947,1.947,0,0,1-1.247,3.442Zm16.737-16.8h-.322a2,2,0,0,1-1.284-.467l-10.121-8.434-2.391,2.869,9.829,8.189a1.948,1.948,0,0,1-1.249,3.442h-.407a1.947,1.947,0,0,1-1.245-.452l-10.137-8.447-2.391,2.869,9.829,8.19a1.945,1.945,0,0,1-1.247,3.439,3.083,3.083,0,0,1-1.964-.711l-4.166-3.472a5.806,5.806,0,0,0-5.011-3.262,5.81,5.81,0,0,0-5.6-5.6,5.81,5.81,0,0,0-5.6-5.6,5.811,5.811,0,0,0-9.921-3.914L29.7,154.576a5.781,5.781,0,0,0-.523.639l-5.733-3.44,5.026-17.59,12.6-2.8a19.226,19.226,0,0,1,10.014.453l2.749.88-9.321,4.66a6.222,6.222,0,0,0-3.453,5.592v.369a6.25,6.25,0,0,0,9.469,5.36l6.95-4.167a3.853,3.853,0,0,1,4.476.431l15.769,14.192a2.009,2.009,0,0,1-1.342,3.5Zm35.6-21.684L80.54,156.693c-.1-.108-.209-.211-.321-.312L64.452,142.189a7.511,7.511,0,0,0-8.9-.86L48.6,145.5a2.517,2.517,0,0,1-3.811-2.162v-.369a2.5,2.5,0,0,1,1.393-2.253L56.6,135.509a8.112,8.112,0,0,1,5.817-.539l11.729,3.35,2.841.071,35-18.421Z" transform="translate(0 -67.468)"/></svg>