<svg xmlns="http://www.w3.org/2000/svg" width="115.716" height="115.716" viewBox="0 0 115.716 115.716"><defs><style>.a{fill:#f19181;}.b{fill:#ec6448;}</style></defs><path class="a" d="M74.655,14.931H0V7.466H19.758L27.223,0H47.432L54.9,7.466H74.655Z"/><path class="a" d="M74.655,295.466H0V288H74.655Z" transform="translate(0 -220.81)"/><path class="a" d="M397.6,168h-3.733L392,184.8l3.733,3.733,3.733-3.733Z" transform="translate(-300.547 -128.806)"/><path class="b" d="M120,32h18.664v3.733H120Z" transform="translate(-92.004 -24.534)"/><path class="b" d="M16,64h3.733v52.259H16Z" transform="translate(-12.267 -49.069)"/><path class="b" d="M74.129,116.53H70.4V96H66.664v20.53H62.931V101.6H59.2V116.53H55.466V107.2H51.733v9.332H48v3.733H74.129Z" transform="translate(-36.802 -73.603)"/><path class="b" d="M48,216h3.733v3.733H48Z" transform="translate(-36.802 -165.608)"/><path class="b" d="M80,216H98.664v3.733H80Z" transform="translate(-61.336 -165.608)"/><path class="b" d="M110.117,101.056a5.607,5.607,0,0,0,5.6-5.6V66.718a7.5,7.5,0,0,0-6.409-7.391l-6.655-.95V55.255a11.16,11.16,0,0,0,3.733-8.324V43.2a11.2,11.2,0,1,0-22.4,0v3.733a11.166,11.166,0,0,0,3.733,8.324v3.122l-10.459,1.5L70.837,52.53h.086V39.466H67.19v8.9l-1.177-1.346a5.718,5.718,0,0,0-10.021,3.765v.4a5.745,5.745,0,0,0,1.252,3.572L67.19,67.183V91.724h3.733V71.67a5.555,5.555,0,0,0,3.66,1.391h7.539v63.457H68.467L55.991,104.438V99.19H52.259v3.733H22.4V99.19H18.664v5.248L6.189,136.517H0v3.733H115.716v-3.733H108.25v-35.8A5.519,5.519,0,0,0,110.117,101.056ZM87.72,43.2a7.466,7.466,0,1,1,14.931,0v3.733a7.466,7.466,0,0,1-14.931,0Zm7.466,14.931a11.14,11.14,0,0,0,3.733-.653v2.007a4.118,4.118,0,0,1-7.466,0V57.476A11.14,11.14,0,0,0,95.186,58.129Zm-20.6,11.2a1.862,1.862,0,0,1-1.457-.7L60.159,52.42a2,2,0,0,1-.435-1.241v-.4A1.985,1.985,0,0,1,63.2,49.474l12.58,14.377,12.883-1.84a7.723,7.723,0,0,0,13.039,0l7.074,1.01a3.752,3.752,0,0,1,3.2,3.7v28.74a1.866,1.866,0,0,1-3.733,0V69.328h-3.733V87.991H85.854V69.328Zm11.271,22.4h7.466v44.793H85.854ZM52.848,106.655l11.613,29.862H61L49.388,106.655Zm-17.387,0h3.733v29.862H35.461Zm-3.733,29.862H17.659l11.613-29.862h2.456Zm11.2-29.862h2.456L57,136.517H42.927Zm-21.12,0h3.46L13.654,136.517h-3.46Zm75.245,29.862V91.724h7.466v44.793Z" transform="translate(0 -24.534)"/><path class="b" d="M176,171.2A11.2,11.2,0,1,0,187.2,160,11.209,11.209,0,0,0,176,171.2Zm4,1.866h5.334V178.4A7.454,7.454,0,0,1,180,173.065Zm14.666-1.866a7.458,7.458,0,0,1-5.6,7.2V164A7.458,7.458,0,0,1,194.664,171.2Zm-9.332-7.2v5.334H180A7.454,7.454,0,0,1,185.332,164Z" transform="translate(-134.94 -122.672)"/></svg>