<svg xmlns="http://www.w3.org/2000/svg" width="115.716" height="115.716" viewBox="0 0 115.716 115.716"><defs><style>.a{fill:#f19181;}.b{fill:#ec6448;}</style></defs><path class="a" d="M287.466,41.06V33.595H280V0h33.595V33.595H300.53Z" transform="translate(-214.677)"/><path class="a" d="M187.2,211.733,181.6,208l-5.6,3.733,3.733,5.6L176,232.263l5.6,5.6,5.6-5.6-3.733-14.931Z" transform="translate(-134.94 -159.474)"/><path class="b" d="M32,400h3.733v3.733H32Z" transform="translate(-24.534 -306.681)"/><path class="b" d="M64,400h3.733v3.733H64Z" transform="translate(-49.069 -306.681)"/><path class="b" d="M96,400h3.733v3.733H96Z" transform="translate(-73.603 -306.681)"/><path class="b" d="M344,32h3.733v3.733H344Z" transform="translate(-263.746 -24.534)"/><path class="b" d="M312,32h3.733v3.733H312Z" transform="translate(-239.211 -24.534)"/><path class="b" d="M376,32h3.733v3.733H376Z" transform="translate(-288.28 -24.534)"/><path class="b" d="M106.384,34.664h-3.733V38.4h3.733a5.607,5.607,0,0,1,5.6,5.6v57.858H34.368l-3.733-3.733H3.733V44a5.607,5.607,0,0,1,5.6-5.6h22.4v.1a9.424,9.424,0,0,0,.983,4.173l2.749,5.494a9.333,9.333,0,0,0,1.866,2.52v2.947L24.459,55.974A9.331,9.331,0,0,0,16.8,65.157V94.388H76.522V65.157a9.327,9.327,0,0,0-7.661-9.181L55.991,53.637V50.69a9.34,9.34,0,0,0,1.866-2.52l2.749-5.5a9.424,9.424,0,0,0,.983-4.173v-9a8.569,8.569,0,0,0-4.479-7.56l-1.919-1.918a13.744,13.744,0,0,0-23.464,9.717h3.733a10.012,10.012,0,0,1,17.091-7.079L54.885,25l.272.137a4.859,4.859,0,0,1,2.7,4.369v9a5.64,5.64,0,0,1-.59,2.5L54.519,46.5a5.565,5.565,0,0,1-5.007,3.095h-5.7A5.565,5.565,0,0,1,38.8,46.5l-2.749-5.494a5.66,5.66,0,0,1-.588-2.5V34.664H9.332A9.343,9.343,0,0,0,0,44v63.457a9.343,9.343,0,0,0,9.332,9.332H33.595v7.466H26.129v3.733H89.586V124.25H82.121v-7.466h24.263a9.343,9.343,0,0,0,9.332-9.332V44A9.343,9.343,0,0,0,106.384,34.664ZM38.727,57.176l4.886,3.665-4.967,3.973-1.234-7.4Zm34.061,7.98v25.5H65.323V66.392H61.591V90.655H31.728V66.392H28V90.655H20.53v-25.5a5.6,5.6,0,0,1,4.6-5.509l8.614-1.567L36.01,71.7l10.65-8.519L57.309,71.7l2.269-13.622,8.614,1.567A5.6,5.6,0,0,1,72.789,65.157Zm-18.2-7.98,1.314.239-1.234,7.4L49.705,60.84Zm-5.081-3.848a9.4,9.4,0,0,0,2.748-.418v1.351l-5.6,4.2-5.6-4.2V52.907a9.332,9.332,0,0,0,2.748.42Zm56.873,59.724H41.06v3.733H78.388v7.466H37.328v-11.2h-28a5.607,5.607,0,0,1-5.6-5.6v-5.6H29.089l3.733,3.733h79.161v1.866A5.607,5.607,0,0,1,106.384,113.052Z" transform="translate(0 -12.267)"/><path class="b" d="M312,64h18.664v3.733H312Z" transform="translate(-239.211 -49.069)"/><path class="b" d="M312,96h18.664v3.733H312Z" transform="translate(-239.211 -73.603)"/></svg>