<svg xmlns="http://www.w3.org/2000/svg" width="115.716" height="115.716" viewBox="0 0 115.716 115.716"><defs><style>.a{fill:#f19181;}.b{fill:#ec6548;}</style></defs><g transform="translate(49.582 6.364)"><path class="a" d="M225.966,43.8,220.8,42.493,215.641,43.8l-.4-5.523-2.712-4.63,4.8-2.081L220.8,27.28l3.47,4.289,4.8,2.081-2.712,4.63Z" transform="translate(-212.528 -27.28)"/><path class="a" d="M305.966,43.8,300.8,42.493,295.641,43.8l-.4-5.523-2.712-4.63,4.8-2.081L300.8,27.28l3.47,4.289,4.8,2.081-2.712,4.63Z" transform="translate(-273.864 -27.28)"/><path class="a" d="M265.966,107.8l-5.162-1.312-5.162,1.312-.4-5.523-2.712-4.63,4.8-2.081L260.8,91.28l3.47,4.289,4.8,2.081-2.712,4.631Z" transform="translate(-243.196 -76.349)"/><path class="a" d="M345.966,107.8l-5.162-1.312-5.162,1.312-.4-5.523-2.712-4.63,4.8-2.081L340.8,91.28l3.47,4.289,4.8,2.081-2.712,4.631Z" transform="translate(-304.532 -76.349)"/><path class="a" d="M385.966,43.8,380.8,42.493,375.641,43.8l-.4-5.523-2.712-4.63,4.8-2.081L380.8,27.28l3.47,4.289,4.8,2.081-2.712,4.63Z" transform="translate(-335.2 -27.28)"/></g><path class="b" d="M37.328,0V54.125h-6.2a1.266,1.266,0,0,1-1.264-1.264,1.292,1.292,0,0,1,.039-.315,21.328,21.328,0,0,0,3.694-12.027V33.595a5.6,5.6,0,0,0-11.2,0,20.527,20.527,0,0,1-6.051,14.612l-4.28,4.28a5.568,5.568,0,0,1-3.96,1.639H3.733V50.392H0V85.854H3.733V82.121H8.71a5.633,5.633,0,0,1,3.359,1.12l3.483,2.613a9.384,9.384,0,0,0,5.6,1.866H37.328v28H95.958l19.758-19.758V0Zm11.2,57.858a1.866,1.866,0,1,1,0,3.733H35.461a1.866,1.866,0,0,1,0-3.733Zm1.866,9.332a1.867,1.867,0,0,1-1.866,1.866H35.461a1.866,1.866,0,0,1,0-3.733H48.526A1.867,1.867,0,0,1,50.392,67.19Zm-16.8,7.466a1.867,1.867,0,0,1,1.866-1.866H48.526a1.866,1.866,0,0,1,0,3.733H35.461A1.867,1.867,0,0,1,33.595,74.655Zm-15.8,8.212L14.31,80.254a9.384,9.384,0,0,0-5.6-1.866H3.733V57.858H8.106a9.272,9.272,0,0,0,6.6-2.732l4.28-4.28a24.234,24.234,0,0,0,7.145-17.251,1.866,1.866,0,1,1,3.733,0v6.924a17.626,17.626,0,0,1-3.173,10.114l-.2.375a4.939,4.939,0,0,0-.358,1.853,5,5,0,0,0,4.1,4.907,5.455,5.455,0,0,0,1.084,5.689,5.513,5.513,0,0,0,0,7.466,5.513,5.513,0,0,0,0,7.466,5.427,5.427,0,0,0-1.112,5.6H21.152A5.633,5.633,0,0,1,17.792,82.867Zm17.669,1.12a1.866,1.866,0,1,1,0-3.733H48.526a1.866,1.866,0,1,1,0,3.733H35.461Zm5.6,3.733h7.466a5.575,5.575,0,0,0,4.143-9.332,5.513,5.513,0,0,0,0-7.466,5.513,5.513,0,0,0,0-7.466,5.575,5.575,0,0,0-4.143-9.332H41.06V3.733h70.923V93.319H93.319v18.664H41.06Zm68.283,9.332L97.052,109.344V97.052Z"/><path class="b" d="M270.943,178.344l-5.052,5.052H248V202.06h18.664V187.9l6.919-6.919Zm-8.012,19.983h-11.2v-11.2h10.426l-4.826,4.826-2.413-2.413-2.639,2.639,5.052,5.052,5.6-5.6Z" transform="translate(-190.142 -136.737)"/><path class="b" d="M248,322.664h18.664V304H248Zm3.733-14.931h11.2v11.2h-11.2Z" transform="translate(-190.142 -233.077)"/><rect class="b" width="21" height="3" transform="translate(87 62)"/><rect class="b" width="8" height="4" transform="translate(87 54)"/><rect class="b" width="9" height="4" transform="translate(99 54)"/><rect class="b" width="21" height="3" transform="translate(87 71)"/><rect class="b" width="21" height="5" transform="translate(87 46)"/><rect class="b" width="8" height="3" transform="translate(87 79)"/><rect class="b" width="9" height="3" transform="translate(99 79)"/></svg>