<svg xmlns="http://www.w3.org/2000/svg" width="115.716" height="115.716" viewBox="0 0 115.716 115.716"><defs><style>.a{fill:#f19181;}.b{fill:#ec6548;}</style></defs><g transform="translate(-8 -8)"><g transform="translate(8 8)"><g transform="translate(59.724 31.729)"><path class="a" d="M299.461,151.466a18.612,18.612,0,0,1-14.9-7.466H264v24.263h37.328V151.372C300.714,151.432,300.092,151.466,299.461,151.466Z" transform="translate(-264 -144)"/></g><g transform="translate(7.466)"><path class="a" d="M53.679,58.913A3.735,3.735,0,0,0,56.8,55.231v-3.7h.034a13.054,13.054,0,0,1-7.5-11.807V35.779a11.2,11.2,0,0,1,4.2-8.744L57.8,23.627l-.037-.162a10.281,10.281,0,0,0,8.324,5.995l6.017.6a3.732,3.732,0,0,1,3.361,3.714v5.954a13.056,13.056,0,0,1-7.5,11.807H68v3.7a3.733,3.733,0,0,0,3.119,3.682l5.4.9A33.586,33.586,0,0,0,84.793,37.73V30.4A22.4,22.4,0,1,0,40,30.4V37.73a33.59,33.59,0,0,0,8.279,22.083Z" transform="translate(-40 -8)"/></g><path class="b" d="M123.716,28.53A20.522,20.522,0,0,0,87.36,15.466H54.508A22.42,22.42,0,0,1,57.228,19.2H84.921a20.349,20.349,0,0,0-1.471,3.733H67.724v11.2H83.45a20.349,20.349,0,0,0,1.471,3.733h-17.2v3.733H87.36a20.721,20.721,0,0,0,4.058,3.733H67.724V49.06h35.461a20.467,20.467,0,0,0,5.6-.8V75.19H67.724V71.457A12.845,12.845,0,0,0,56.959,58.749L46.886,57.071a1.858,1.858,0,0,1-1.558-1.84V52.64a14.928,14.928,0,0,0,7.466-12.912V33.775a5.579,5.579,0,0,0-5.041-5.569l-6.017-.6a8.42,8.42,0,0,1-7.606-8.4H30.4a12.269,12.269,0,0,0,.612,3.839l-3.175,2.538a13.006,13.006,0,0,0-4.9,10.2v3.949A14.931,14.931,0,0,0,30.4,52.64v2.591a1.858,1.858,0,0,1-1.56,1.84L18.765,58.749a12.864,12.864,0,0,0-7.033,3.628V21.065A1.868,1.868,0,0,1,13.6,19.2h4.9a22.42,22.42,0,0,1,2.719-3.733H13.6a5.606,5.606,0,0,0-5.6,5.6v67.19a5.606,5.606,0,0,0,5.6,5.6H47.194v8.2c-9.9,1.183-14.931,3.442-14.931,6.728v7.466c0,7.257,25.131,7.466,28,7.466s28-.209,28-7.466v-7.466c0-3.287-5.026-5.545-14.931-6.728v-8.2h33.595a5.606,5.606,0,0,0,5.6-5.6V46.795A20.539,20.539,0,0,0,123.716,28.53Zm-97.052,11.2V35.779a9.288,9.288,0,0,1,3.5-7.286l2.589-2.07a12.144,12.144,0,0,0,8.608,4.894l6.019.6a1.859,1.859,0,0,1,1.68,1.855v5.954a11.2,11.2,0,0,1-22.4,0ZM29.45,60.753a5.582,5.582,0,0,0,4.679-5.523V54.169a14.439,14.439,0,0,0,7.466,0v1.062a5.579,5.579,0,0,0,4.679,5.523l.761.127A15.291,15.291,0,0,1,39.729,72.2V69.591H36v2.589a15.4,15.4,0,0,1-7.305-11.3Zm-17.718,27.5v-16.8a9.123,9.123,0,0,1,7.647-9.026l5.636-.939A19.22,19.22,0,0,0,37.272,76.961l.59.2.59-.2A19.219,19.219,0,0,0,50.708,61.492l5.636.939a9.123,9.123,0,0,1,7.647,9.026V90.121H54.13a23.988,23.988,0,0,0,2.4-10.461V75.19H52.793v4.47a20.27,20.27,0,0,1-2.908,10.461H25.839A20.275,20.275,0,0,1,22.931,79.66V75.19H19.2v4.47a23.988,23.988,0,0,0,2.4,10.461h-8a1.868,1.868,0,0,1-1.866-1.866Zm48.526,31.728c-14.343,0-23.149-2.46-24.263-3.9V112.9c7.109,3.227,22.089,3.35,24.263,3.35s17.154-.123,24.263-3.35v3.186C83.407,117.523,74.6,119.983,60.259,119.983Zm0-7.466c-13.78,0-22.449-2.271-24.1-3.723.827-.683,3.852-2.077,11.109-2.984a3.743,3.743,0,0,0,3.656,2.975H69.591a3.739,3.739,0,0,0,3.654-2.975c7.256.909,10.282,2.3,11.109,2.984C82.708,110.246,74.038,112.517,60.259,112.517Zm9.332-7.466H50.927v-11.2H69.591Zm37.328-14.931H67.724v-11.2h41.06v9.332A1.868,1.868,0,0,1,106.918,90.121ZM71.457,26.664H75.19V30.4H71.457ZM78.923,30.4V26.664H82.75c-.056.616-.1,1.236-.1,1.866s.039,1.25.1,1.866Zm24.263,14.931a16.8,16.8,0,1,1,16.8-16.8A16.817,16.817,0,0,1,103.185,45.328Z" transform="translate(-8 -8)"/><path class="b" d="M392,328h3.733v3.733H392Z" transform="translate(-302.414 -253.345)"/><path class="b" d="M360,328h3.733v3.733H360Z" transform="translate(-277.879 -253.345)"/><path class="b" d="M328,328h3.733v3.733H328Z" transform="translate(-253.345 -253.345)"/><path class="b" d="M408,232h3.733v3.733H408Z" transform="translate(-314.681 -179.741)"/><path class="b" d="M376,232h3.733v3.733H376Z" transform="translate(-290.146 -179.741)"/><path class="b" d="M344,232h3.733v3.733H344Z" transform="translate(-265.612 -179.741)"/><path class="b" d="M264,232h14.931v3.733H264Z" transform="translate(-204.276 -179.741)"/><path class="b" d="M264,200h37.328v3.733H264Z" transform="translate(-204.276 -155.207)"/></g><g transform="translate(90.196 15.542)"><path class="a" d="M363.407,56.438a3.1,3.1,0,0,1-3.083-3.083,3.024,3.024,0,0,1,3.032-3.083h6.913V43.511a3.108,3.108,0,1,1,6.215,0v6.761H383.1a3.086,3.086,0,1,1,.049,6.166h-6.662v6.911a3.1,3.1,0,0,1-3.134,3.032,3.176,3.176,0,0,1-3.182-3.032V56.438Z" transform="translate(-360.324 -40.329)"/></g></g></svg>