<svg xmlns="http://www.w3.org/2000/svg" width="115.716" height="115.716" viewBox="0 0 115.716 115.716"><defs><style>.a{fill:#f19181;}.b{fill:#ec6548;}</style></defs><path class="a" d="M248,144h14.931v11.2H248Z" transform="translate(-190.142 -110.405)"/><path class="a" d="M160.8,171.2H145.866A1.868,1.868,0,0,1,144,169.332v-7.466A1.868,1.868,0,0,1,145.866,160H160.8a1.868,1.868,0,0,1,1.866,1.866v7.466A1.868,1.868,0,0,1,160.8,171.2Z" transform="translate(-110.405 -122.672)"/><path class="b" d="M272,144h3.733v3.733H272Z" transform="translate(-208.543 -110.405)"/><path class="b" d="M272,176h3.733v3.733H272Z" transform="translate(-208.543 -134.94)"/><path class="b" d="M160.526,81.51V80.8a5.607,5.607,0,0,0-5.6-5.6H147.2a7.348,7.348,0,0,0,.265-1.866,7.454,7.454,0,0,0-12.794-5.213A9.33,9.33,0,0,0,117.788,75.2H117.6a5.607,5.607,0,0,0-5.6,5.6V99.461a5.607,5.607,0,0,0,5.6,5.6h37.328a5.607,5.607,0,0,0,5.6-5.6v-.713l5.159,2.579h6.039v-22.4h-6.039ZM140,69.6a3.733,3.733,0,1,1-3.733,3.733A3.737,3.737,0,0,1,140,69.6Zm-13.065-1.866a5.6,5.6,0,1,1-5.6,5.6A5.607,5.607,0,0,1,126.931,67.733Zm-11.2,31.728V80.8a1.869,1.869,0,0,1,1.866-1.866h1.915a9.281,9.281,0,0,0,15.153-.386A7.431,7.431,0,0,0,140,80.8a7.348,7.348,0,0,0,1.866-.265v20.8H117.6A1.869,1.869,0,0,1,115.733,99.461Zm41.06,0a1.869,1.869,0,0,1-1.866,1.866h-9.332v-22.4h9.332a1.869,1.869,0,0,1,1.866,1.866Zm11.2-16.8V97.595h-1.426l-6.039-3.02V85.684l6.039-3.02Z" transform="translate(-85.871 -49.069)"/><path class="b" d="M57.858,0A57.857,57.857,0,0,0,29.444,7.466H11.2V23.679A57.328,57.328,0,0,0,0,57.858,57.846,57.846,0,0,0,86.708,108l-1.865-3.233A54.088,54.088,0,0,1,11.551,85.854H50.392V82.121H14.931V63.457h41.06V59.724H14.931V11.2H85.239A54.422,54.422,0,0,1,97.052,20.59v41h3.733V24.947a54.009,54.009,0,0,1,3.982,59.9L108,86.71A57.847,57.847,0,0,0,57.858,0ZM3.733,57.858A53.63,53.63,0,0,1,11.2,30.482V85.239A53.762,53.762,0,0,1,3.733,57.858ZM38.147,7.466a53.913,53.913,0,0,1,39.424,0Z" transform="translate(0 0)"/><path class="b" d="M152,304h14.931v3.733H152Z" transform="translate(-116.539 -233.078)"/><path class="b" d="M80,304h9.332v3.733H80Z" transform="translate(-61.336 -233.078)"/><path class="a" d="M117.6,299.2a5.6,5.6,0,1,1,5.6-5.6A5.607,5.607,0,0,1,117.6,299.2Zm0-7.466a1.866,1.866,0,1,0,1.866,1.866A1.868,1.868,0,0,0,117.6,291.733Z" transform="translate(-85.871 -220.81)"/><path class="a" d="M262.125,304.526H213.6a5.607,5.607,0,0,1-5.6-5.6V261.6a5.607,5.607,0,0,1,5.6-5.6h48.526a5.607,5.607,0,0,1,5.6,5.6v37.328A5.607,5.607,0,0,1,262.125,304.526Z" transform="translate(-159.474 -196.276)"/><path class="b" d="M280,327.492V299.055l28.436,14.218Zm3.733-22.4v16.357l16.357-8.178Z" transform="translate(-214.677 -229.286)"/></svg>